<?xml version="1.0" encoding="UTF-8"?>
<svg xmlns="http://www.w3.org/2000/svg" xmlns:xlink="http://www.w3.org/1999/xlink" width="1012.5pt" height="487.499991pt" viewBox="0 0 1012.5 487.499991" version="1.2">
<defs>
<clipPath id="clip1">
  <path d="M 221 42 L 226 42 L 226 47 L 221 47 Z M 221 42 "/>
</clipPath>
<clipPath id="clip2">
  <path d="M -102.160156 13.675781 L 182.714844 -82.238281 L 243.46875 98.207031 L -41.40625 194.121094 Z M -102.160156 13.675781 "/>
</clipPath>
<clipPath id="clip3">
  <path d="M -102.160156 13.675781 L 182.714844 -82.238281 L 243.46875 98.207031 L -41.40625 194.121094 Z M -102.160156 13.675781 "/>
</clipPath>
<clipPath id="clip4">
  <path d="M 228 55 L 230 55 L 230 57 L 228 57 Z M 228 55 "/>
</clipPath>
<clipPath id="clip5">
  <path d="M -102.160156 13.675781 L 182.714844 -82.238281 L 243.46875 98.207031 L -41.40625 194.121094 Z M -102.160156 13.675781 "/>
</clipPath>
<clipPath id="clip6">
  <path d="M -102.160156 13.675781 L 182.714844 -82.238281 L 243.46875 98.207031 L -41.40625 194.121094 Z M -102.160156 13.675781 "/>
</clipPath>
<clipPath id="clip7">
  <path d="M 0.269531 54 L 1 54 L 1 65 L 0.269531 65 Z M 0.269531 54 "/>
</clipPath>
<clipPath id="clip8">
  <path d="M -102.160156 13.675781 L 182.714844 -82.238281 L 243.46875 98.207031 L -41.40625 194.121094 Z M -102.160156 13.675781 "/>
</clipPath>
<clipPath id="clip9">
  <path d="M -102.160156 13.675781 L 182.714844 -82.238281 L 243.46875 98.207031 L -41.40625 194.121094 Z M -102.160156 13.675781 "/>
</clipPath>
<clipPath id="clip10">
  <path d="M 67 25 L 75 25 L 75 36 L 67 36 Z M 67 25 "/>
</clipPath>
<clipPath id="clip11">
  <path d="M -102.160156 13.675781 L 182.714844 -82.238281 L 243.46875 98.207031 L -41.40625 194.121094 Z M -102.160156 13.675781 "/>
</clipPath>
<clipPath id="clip12">
  <path d="M -102.160156 13.675781 L 182.714844 -82.238281 L 243.46875 98.207031 L -41.40625 194.121094 Z M -102.160156 13.675781 "/>
</clipPath>
<clipPath id="clip13">
  <path d="M 180 26 L 188 26 L 188 36 L 180 36 Z M 180 26 "/>
</clipPath>
<clipPath id="clip14">
  <path d="M -102.160156 13.675781 L 182.714844 -82.238281 L 243.46875 98.207031 L -41.40625 194.121094 Z M -102.160156 13.675781 "/>
</clipPath>
<clipPath id="clip15">
  <path d="M -102.160156 13.675781 L 182.714844 -82.238281 L 243.46875 98.207031 L -41.40625 194.121094 Z M -102.160156 13.675781 "/>
</clipPath>
<clipPath id="clip16">
  <path d="M 0.269531 155 L 7 155 L 7 164 L 0.269531 164 Z M 0.269531 155 "/>
</clipPath>
<clipPath id="clip17">
  <path d="M -102.160156 13.675781 L 182.714844 -82.238281 L 243.46875 98.207031 L -41.40625 194.121094 Z M -102.160156 13.675781 "/>
</clipPath>
<clipPath id="clip18">
  <path d="M -102.160156 13.675781 L 182.714844 -82.238281 L 243.46875 98.207031 L -41.40625 194.121094 Z M -102.160156 13.675781 "/>
</clipPath>
<clipPath id="clip19">
  <path d="M 126 79 L 133 79 L 133 88 L 126 88 Z M 126 79 "/>
</clipPath>
<clipPath id="clip20">
  <path d="M -102.160156 13.675781 L 182.714844 -82.238281 L 243.46875 98.207031 L -41.40625 194.121094 Z M -102.160156 13.675781 "/>
</clipPath>
<clipPath id="clip21">
  <path d="M -102.160156 13.675781 L 182.714844 -82.238281 L 243.46875 98.207031 L -41.40625 194.121094 Z M -102.160156 13.675781 "/>
</clipPath>
<clipPath id="clip22">
  <path d="M 38 101 L 44 101 L 44 109 L 38 109 Z M 38 101 "/>
</clipPath>
<clipPath id="clip23">
  <path d="M -102.160156 13.675781 L 182.714844 -82.238281 L 243.46875 98.207031 L -41.40625 194.121094 Z M -102.160156 13.675781 "/>
</clipPath>
<clipPath id="clip24">
  <path d="M -102.160156 13.675781 L 182.714844 -82.238281 L 243.46875 98.207031 L -41.40625 194.121094 Z M -102.160156 13.675781 "/>
</clipPath>
<clipPath id="clip25">
  <path d="M 33 113 L 42 113 L 42 119 L 33 119 Z M 33 113 "/>
</clipPath>
<clipPath id="clip26">
  <path d="M -102.160156 13.675781 L 182.714844 -82.238281 L 243.46875 98.207031 L -41.40625 194.121094 Z M -102.160156 13.675781 "/>
</clipPath>
<clipPath id="clip27">
  <path d="M -102.160156 13.675781 L 182.714844 -82.238281 L 243.46875 98.207031 L -41.40625 194.121094 Z M -102.160156 13.675781 "/>
</clipPath>
<clipPath id="clip28">
  <path d="M 101 49 L 109 49 L 109 55 L 101 55 Z M 101 49 "/>
</clipPath>
<clipPath id="clip29">
  <path d="M -102.160156 13.675781 L 182.714844 -82.238281 L 243.46875 98.207031 L -41.40625 194.121094 Z M -102.160156 13.675781 "/>
</clipPath>
<clipPath id="clip30">
  <path d="M -102.160156 13.675781 L 182.714844 -82.238281 L 243.46875 98.207031 L -41.40625 194.121094 Z M -102.160156 13.675781 "/>
</clipPath>
<clipPath id="clip31">
  <path d="M 91 4 L 96 4 L 96 12 L 91 12 Z M 91 4 "/>
</clipPath>
<clipPath id="clip32">
  <path d="M -102.160156 13.675781 L 182.714844 -82.238281 L 243.46875 98.207031 L -41.40625 194.121094 Z M -102.160156 13.675781 "/>
</clipPath>
<clipPath id="clip33">
  <path d="M -102.160156 13.675781 L 182.714844 -82.238281 L 243.46875 98.207031 L -41.40625 194.121094 Z M -102.160156 13.675781 "/>
</clipPath>
<clipPath id="clip34">
  <path d="M 23 20 L 29 20 L 29 27 L 23 27 Z M 23 20 "/>
</clipPath>
<clipPath id="clip35">
  <path d="M -102.160156 13.675781 L 182.714844 -82.238281 L 243.46875 98.207031 L -41.40625 194.121094 Z M -102.160156 13.675781 "/>
</clipPath>
<clipPath id="clip36">
  <path d="M -102.160156 13.675781 L 182.714844 -82.238281 L 243.46875 98.207031 L -41.40625 194.121094 Z M -102.160156 13.675781 "/>
</clipPath>
<clipPath id="clip37">
  <path d="M 21 31 L 26 31 L 26 37 L 21 37 Z M 21 31 "/>
</clipPath>
<clipPath id="clip38">
  <path d="M -102.160156 13.675781 L 182.714844 -82.238281 L 243.46875 98.207031 L -41.40625 194.121094 Z M -102.160156 13.675781 "/>
</clipPath>
<clipPath id="clip39">
  <path d="M -102.160156 13.675781 L 182.714844 -82.238281 L 243.46875 98.207031 L -41.40625 194.121094 Z M -102.160156 13.675781 "/>
</clipPath>
<clipPath id="clip40">
  <path d="M 60 23 L 64 23 L 64 28 L 60 28 Z M 60 23 "/>
</clipPath>
<clipPath id="clip41">
  <path d="M -102.160156 13.675781 L 182.714844 -82.238281 L 243.46875 98.207031 L -41.40625 194.121094 Z M -102.160156 13.675781 "/>
</clipPath>
<clipPath id="clip42">
  <path d="M -102.160156 13.675781 L 182.714844 -82.238281 L 243.46875 98.207031 L -41.40625 194.121094 Z M -102.160156 13.675781 "/>
</clipPath>
<clipPath id="clip43">
  <path d="M 47 159 L 52 159 L 52 164 L 47 164 Z M 47 159 "/>
</clipPath>
<clipPath id="clip44">
  <path d="M -102.160156 13.675781 L 182.714844 -82.238281 L 243.46875 98.207031 L -41.40625 194.121094 Z M -102.160156 13.675781 "/>
</clipPath>
<clipPath id="clip45">
  <path d="M -102.160156 13.675781 L 182.714844 -82.238281 L 243.46875 98.207031 L -41.40625 194.121094 Z M -102.160156 13.675781 "/>
</clipPath>
<clipPath id="clip46">
  <path d="M 45 101 L 49 101 L 49 105 L 45 105 Z M 45 101 "/>
</clipPath>
<clipPath id="clip47">
  <path d="M -102.160156 13.675781 L 182.714844 -82.238281 L 243.46875 98.207031 L -41.40625 194.121094 Z M -102.160156 13.675781 "/>
</clipPath>
<clipPath id="clip48">
  <path d="M -102.160156 13.675781 L 182.714844 -82.238281 L 243.46875 98.207031 L -41.40625 194.121094 Z M -102.160156 13.675781 "/>
</clipPath>
<clipPath id="clip49">
  <path d="M 110 136 L 114 136 L 114 140 L 110 140 Z M 110 136 "/>
</clipPath>
<clipPath id="clip50">
  <path d="M -102.160156 13.675781 L 182.714844 -82.238281 L 243.46875 98.207031 L -41.40625 194.121094 Z M -102.160156 13.675781 "/>
</clipPath>
<clipPath id="clip51">
  <path d="M -102.160156 13.675781 L 182.714844 -82.238281 L 243.46875 98.207031 L -41.40625 194.121094 Z M -102.160156 13.675781 "/>
</clipPath>
<clipPath id="clip52">
  <path d="M 131 4 L 135 4 L 135 7 L 131 7 Z M 131 4 "/>
</clipPath>
<clipPath id="clip53">
  <path d="M -102.160156 13.675781 L 182.714844 -82.238281 L 243.46875 98.207031 L -41.40625 194.121094 Z M -102.160156 13.675781 "/>
</clipPath>
<clipPath id="clip54">
  <path d="M -102.160156 13.675781 L 182.714844 -82.238281 L 243.46875 98.207031 L -41.40625 194.121094 Z M -102.160156 13.675781 "/>
</clipPath>
<clipPath id="clip55">
  <path d="M 881 462 L 892 462 L 892 472 L 881 472 Z M 881 462 "/>
</clipPath>
<clipPath id="clip56">
  <path d="M 769.597656 464.1875 L 1008.722656 246.9375 L 1146.332031 398.402344 L 907.207031 615.652344 Z M 769.597656 464.1875 "/>
</clipPath>
<clipPath id="clip57">
  <path d="M 769.597656 464.1875 L 1008.722656 246.9375 L 1146.332031 398.402344 L 907.207031 615.652344 Z M 769.597656 464.1875 "/>
</clipPath>
<clipPath id="clip58">
  <path d="M 841 422 L 854 422 L 854 432 L 841 432 Z M 841 422 "/>
</clipPath>
<clipPath id="clip59">
  <path d="M 769.597656 464.1875 L 1008.722656 246.9375 L 1146.332031 398.402344 L 907.207031 615.652344 Z M 769.597656 464.1875 "/>
</clipPath>
<clipPath id="clip60">
  <path d="M 769.597656 464.1875 L 1008.722656 246.9375 L 1146.332031 398.402344 L 907.207031 615.652344 Z M 769.597656 464.1875 "/>
</clipPath>
<clipPath id="clip61">
  <path d="M 943 401 L 953 401 L 953 411 L 943 411 Z M 943 401 "/>
</clipPath>
<clipPath id="clip62">
  <path d="M 769.597656 464.1875 L 1008.722656 246.9375 L 1146.332031 398.402344 L 907.207031 615.652344 Z M 769.597656 464.1875 "/>
</clipPath>
<clipPath id="clip63">
  <path d="M 769.597656 464.1875 L 1008.722656 246.9375 L 1146.332031 398.402344 L 907.207031 615.652344 Z M 769.597656 464.1875 "/>
</clipPath>
<clipPath id="clip64">
  <path d="M 987 409 L 994 409 L 994 417 L 987 417 Z M 987 409 "/>
</clipPath>
<clipPath id="clip65">
  <path d="M 769.597656 464.1875 L 1008.722656 246.9375 L 1146.332031 398.402344 L 907.207031 615.652344 Z M 769.597656 464.1875 "/>
</clipPath>
<clipPath id="clip66">
  <path d="M 769.597656 464.1875 L 1008.722656 246.9375 L 1146.332031 398.402344 L 907.207031 615.652344 Z M 769.597656 464.1875 "/>
</clipPath>
<clipPath id="clip67">
  <path d="M 957 370 L 962 370 L 962 379 L 957 379 Z M 957 370 "/>
</clipPath>
<clipPath id="clip68">
  <path d="M 769.597656 464.1875 L 1008.722656 246.9375 L 1146.332031 398.402344 L 907.207031 615.652344 Z M 769.597656 464.1875 "/>
</clipPath>
<clipPath id="clip69">
  <path d="M 769.597656 464.1875 L 1008.722656 246.9375 L 1146.332031 398.402344 L 907.207031 615.652344 Z M 769.597656 464.1875 "/>
</clipPath>
<clipPath id="clip70">
  <path d="M 897 415 L 902 415 L 902 422 L 897 422 Z M 897 415 "/>
</clipPath>
<clipPath id="clip71">
  <path d="M 769.597656 464.1875 L 1008.722656 246.9375 L 1146.332031 398.402344 L 907.207031 615.652344 Z M 769.597656 464.1875 "/>
</clipPath>
<clipPath id="clip72">
  <path d="M 769.597656 464.1875 L 1008.722656 246.9375 L 1146.332031 398.402344 L 907.207031 615.652344 Z M 769.597656 464.1875 "/>
</clipPath>
<clipPath id="clip73">
  <path d="M 900 427 L 905 427 L 905 434 L 900 434 Z M 900 427 "/>
</clipPath>
<clipPath id="clip74">
  <path d="M 769.597656 464.1875 L 1008.722656 246.9375 L 1146.332031 398.402344 L 907.207031 615.652344 Z M 769.597656 464.1875 "/>
</clipPath>
<clipPath id="clip75">
  <path d="M 769.597656 464.1875 L 1008.722656 246.9375 L 1146.332031 398.402344 L 907.207031 615.652344 Z M 769.597656 464.1875 "/>
</clipPath>
<clipPath id="clip76">
  <path d="M 794 473 L 800 473 L 800 479 L 794 479 Z M 794 473 "/>
</clipPath>
<clipPath id="clip77">
  <path d="M 769.597656 464.1875 L 1008.722656 246.9375 L 1146.332031 398.402344 L 907.207031 615.652344 Z M 769.597656 464.1875 "/>
</clipPath>
<clipPath id="clip78">
  <path d="M 769.597656 464.1875 L 1008.722656 246.9375 L 1146.332031 398.402344 L 907.207031 615.652344 Z M 769.597656 464.1875 "/>
</clipPath>
<clipPath id="clip79">
  <path d="M 903 366 L 908 366 L 908 373 L 903 373 Z M 903 366 "/>
</clipPath>
<clipPath id="clip80">
  <path d="M 769.597656 464.1875 L 1008.722656 246.9375 L 1146.332031 398.402344 L 907.207031 615.652344 Z M 769.597656 464.1875 "/>
</clipPath>
<clipPath id="clip81">
  <path d="M 769.597656 464.1875 L 1008.722656 246.9375 L 1146.332031 398.402344 L 907.207031 615.652344 Z M 769.597656 464.1875 "/>
</clipPath>
<clipPath id="clip82">
  <path d="M 828 478 L 834 478 L 834 484 L 828 484 Z M 828 478 "/>
</clipPath>
<clipPath id="clip83">
  <path d="M 769.597656 464.1875 L 1008.722656 246.9375 L 1146.332031 398.402344 L 907.207031 615.652344 Z M 769.597656 464.1875 "/>
</clipPath>
<clipPath id="clip84">
  <path d="M 769.597656 464.1875 L 1008.722656 246.9375 L 1146.332031 398.402344 L 907.207031 615.652344 Z M 769.597656 464.1875 "/>
</clipPath>
<clipPath id="clip85">
  <path d="M 934 402 L 939 402 L 939 408 L 934 408 Z M 934 402 "/>
</clipPath>
<clipPath id="clip86">
  <path d="M 769.597656 464.1875 L 1008.722656 246.9375 L 1146.332031 398.402344 L 907.207031 615.652344 Z M 769.597656 464.1875 "/>
</clipPath>
<clipPath id="clip87">
  <path d="M 769.597656 464.1875 L 1008.722656 246.9375 L 1146.332031 398.402344 L 907.207031 615.652344 Z M 769.597656 464.1875 "/>
</clipPath>
<clipPath id="clip88">
  <path d="M 931 348 L 936 348 L 936 353 L 931 353 Z M 931 348 "/>
</clipPath>
<clipPath id="clip89">
  <path d="M 769.597656 464.1875 L 1008.722656 246.9375 L 1146.332031 398.402344 L 907.207031 615.652344 Z M 769.597656 464.1875 "/>
</clipPath>
<clipPath id="clip90">
  <path d="M 769.597656 464.1875 L 1008.722656 246.9375 L 1146.332031 398.402344 L 907.207031 615.652344 Z M 769.597656 464.1875 "/>
</clipPath>
<clipPath id="clip91">
  <path d="M 921 323 L 927 323 L 927 328 L 921 328 Z M 921 323 "/>
</clipPath>
<clipPath id="clip92">
  <path d="M 769.597656 464.1875 L 1008.722656 246.9375 L 1146.332031 398.402344 L 907.207031 615.652344 Z M 769.597656 464.1875 "/>
</clipPath>
<clipPath id="clip93">
  <path d="M 769.597656 464.1875 L 1008.722656 246.9375 L 1146.332031 398.402344 L 907.207031 615.652344 Z M 769.597656 464.1875 "/>
</clipPath>
<clipPath id="clip94">
  <path d="M 952 486 L 957 486 L 957 487 L 952 487 Z M 952 486 "/>
</clipPath>
<clipPath id="clip95">
  <path d="M 769.597656 464.1875 L 1008.722656 246.9375 L 1146.332031 398.402344 L 907.207031 615.652344 Z M 769.597656 464.1875 "/>
</clipPath>
<clipPath id="clip96">
  <path d="M 769.597656 464.1875 L 1008.722656 246.9375 L 1146.332031 398.402344 L 907.207031 615.652344 Z M 769.597656 464.1875 "/>
</clipPath>
<clipPath id="clip97">
  <path d="M 985 279 L 989 279 L 989 283 L 985 283 Z M 985 279 "/>
</clipPath>
<clipPath id="clip98">
  <path d="M 769.597656 464.1875 L 1008.722656 246.9375 L 1146.332031 398.402344 L 907.207031 615.652344 Z M 769.597656 464.1875 "/>
</clipPath>
<clipPath id="clip99">
  <path d="M 769.597656 464.1875 L 1008.722656 246.9375 L 1146.332031 398.402344 L 907.207031 615.652344 Z M 769.597656 464.1875 "/>
</clipPath>
<clipPath id="clip100">
  <path d="M 964 330 L 968 330 L 968 334 L 964 334 Z M 964 330 "/>
</clipPath>
<clipPath id="clip101">
  <path d="M 769.597656 464.1875 L 1008.722656 246.9375 L 1146.332031 398.402344 L 907.207031 615.652344 Z M 769.597656 464.1875 "/>
</clipPath>
<clipPath id="clip102">
  <path d="M 769.597656 464.1875 L 1008.722656 246.9375 L 1146.332031 398.402344 L 907.207031 615.652344 Z M 769.597656 464.1875 "/>
</clipPath>
<clipPath id="clip103">
  <path d="M 996 353 L 999 353 L 999 357 L 996 357 Z M 996 353 "/>
</clipPath>
<clipPath id="clip104">
  <path d="M 769.597656 464.1875 L 1008.722656 246.9375 L 1146.332031 398.402344 L 907.207031 615.652344 Z M 769.597656 464.1875 "/>
</clipPath>
<clipPath id="clip105">
  <path d="M 769.597656 464.1875 L 1008.722656 246.9375 L 1146.332031 398.402344 L 907.207031 615.652344 Z M 769.597656 464.1875 "/>
</clipPath>
<clipPath id="clip106">
  <path d="M 0.269531 391 L 1011.730469 391 L 1011.730469 487 L 0.269531 487 Z M 0.269531 391 "/>
</clipPath>
<clipPath id="clip107">
  <path d="M 517 326 L 1011.730469 326 L 1011.730469 487 L 517 487 Z M 517 326 "/>
</clipPath>
<clipPath id="clip108">
  <path d="M 575.292969 227.984375 L 1166.542969 437.921875 L 1067.46875 716.945312 L 476.21875 507.007812 Z M 575.292969 227.984375 "/>
</clipPath>
<clipPath id="clip109">
  <path d="M 575.292969 227.984375 L 1166.542969 437.921875 L 1067.46875 716.945312 L 476.21875 507.007812 Z M 575.292969 227.984375 "/>
</clipPath>
</defs>
<g id="surface1">
<g clip-path="url(#clip1)" clip-rule="nonzero">
<g clip-path="url(#clip2)" clip-rule="nonzero">
<g clip-path="url(#clip3)" clip-rule="nonzero">
<path style=" stroke:none;fill-rule:nonzero;fill:rgb(95.689392%,43.919373%,10.978699%);fill-opacity:1;" d="M 225.191406 44.585938 C 224.292969 44.765625 223.679688 45.273438 223.070312 45.960938 C 222.761719 46.304688 222.332031 46.269531 221.859375 46.128906 C 221.589844 46.039062 221.390625 45.804688 221.300781 45.535156 C 221.042969 44.59375 221.328125 43.65625 222.050781 43.292969 C 222.804688 42.855469 223.582031 42.476562 224.300781 42.113281 C 224.609375 42.851562 224.902344 43.71875 225.191406 44.585938 Z M 225.191406 44.585938 "/>
</g>
</g>
</g>
<g clip-path="url(#clip4)" clip-rule="nonzero">
<g clip-path="url(#clip5)" clip-rule="nonzero">
<g clip-path="url(#clip6)" clip-rule="nonzero">
<path style=" stroke:none;fill-rule:nonzero;fill:rgb(95.689392%,43.919373%,10.978699%);fill-opacity:1;" d="M 229.203125 56.492188 C 228.785156 56.328125 228.585938 56.09375 228.910156 55.625 C 229 55.894531 229.09375 56.167969 229.203125 56.492188 Z M 229.203125 56.492188 "/>
</g>
</g>
</g>
<g clip-path="url(#clip7)" clip-rule="nonzero">
<g clip-path="url(#clip8)" clip-rule="nonzero">
<g clip-path="url(#clip9)" clip-rule="nonzero">
<path style=" stroke:none;fill-rule:nonzero;fill:rgb(95.689392%,43.919373%,10.978699%);fill-opacity:1;" d="M -5.679688 55.1875 C -4.671875 54.96875 -3.644531 54.804688 -2.667969 55.378906 C -1.996094 55.757812 -1.3125 56.007812 -0.695312 56.402344 C -0.0625 56.851562 0.335938 57.5 0.300781 58.296875 C 0.253906 59.941406 0.0585938 61.511719 -0.113281 63.136719 C -0.148438 63.570312 -0.507812 63.933594 -0.851562 64.167969 C -1.085938 64.367188 -1.335938 64.511719 -1.589844 64.65625 C -2.128906 65.019531 -2.796875 65.003906 -3.230469 64.609375 C -3.828125 63.90625 -4.5 63.347656 -5.417969 63.296875 C -5.671875 63.261719 -6.015625 63.132812 -6.214844 62.898438 C -7.191406 61.964844 -8.058594 60.992188 -8.246094 59.546875 C -8.335938 58.914062 -8.285156 58.355469 -7.980469 57.832031 C -7.515625 57.070312 -6.976562 56.347656 -6.4375 55.625 C -6.257812 55.441406 -5.933594 55.332031 -5.679688 55.1875 Z M -5.679688 55.1875 "/>
</g>
</g>
</g>
<g clip-path="url(#clip10)" clip-rule="nonzero">
<g clip-path="url(#clip11)" clip-rule="nonzero">
<g clip-path="url(#clip12)" clip-rule="nonzero">
<path style=" stroke:none;fill-rule:nonzero;fill:rgb(95.689392%,43.919373%,10.978699%);fill-opacity:1;" d="M 73.78125 30.542969 C 73.871094 30.816406 74.253906 31.589844 74.546875 32.457031 C 74.746094 33.050781 74.640625 33.628906 74.460938 34.171875 C 74.28125 34.714844 73.90625 35.203125 73.507812 35.636719 C 73.167969 36.054688 72.246094 36 71.921875 35.570312 C 70.652344 33.945312 69.203125 32.507812 68.171875 30.683594 C 67.609375 29.730469 67.675781 28.683594 67.890625 27.707031 C 68.066406 26.984375 68.535156 26.40625 69.253906 26.042969 C 70.121094 25.570312 70.894531 25.550781 71.746094 26.109375 C 72.214844 26.429688 72.703125 26.808594 72.90625 27.40625 C 73.140625 28.289062 73.378906 29.171875 73.78125 30.542969 Z M 73.78125 30.542969 "/>
</g>
</g>
</g>
<g clip-path="url(#clip13)" clip-rule="nonzero">
<g clip-path="url(#clip14)" clip-rule="nonzero">
<g clip-path="url(#clip15)" clip-rule="nonzero">
<path style=" stroke:none;fill-rule:nonzero;fill:rgb(95.689392%,43.919373%,10.978699%);fill-opacity:1;" d="M 187.789062 27.53125 C 187.773438 27.65625 187.828125 27.820312 187.738281 27.910156 C 187.558594 28.089844 187.304688 28.234375 187.074219 28.433594 C 186.136719 29.230469 185.492188 30.171875 185.496094 31.4375 C 185.480469 32.464844 185.464844 33.496094 185.070312 34.472656 C 184.894531 34.832031 184.40625 35.175781 184.007812 35.070312 C 182.871094 34.730469 181.769531 34.316406 180.632812 33.976562 C 180.234375 33.871094 179.945312 33.367188 180.105469 32.949219 C 180.425781 32.117188 180.496094 31.25 180.441406 30.367188 C 180.347656 29.375 180.832031 28.667969 181.804688 28.339844 C 182.667969 28.050781 183.316406 27.46875 183.78125 26.710938 C 184.015625 26.332031 184.59375 26.257812 185.007812 26.417969 C 185.839844 26.742188 186.597656 27.207031 187.5 27.207031 C 187.574219 27.242188 187.699219 27.441406 187.789062 27.53125 Z M 184.460938 29.433594 L 184.785156 29.507812 L 184.746094 29.21875 Z M 184.460938 29.433594 "/>
</g>
</g>
</g>
<g clip-path="url(#clip16)" clip-rule="nonzero">
<g clip-path="url(#clip17)" clip-rule="nonzero">
<g clip-path="url(#clip18)" clip-rule="nonzero">
<path style=" stroke:none;fill-rule:nonzero;fill:rgb(95.689392%,43.919373%,10.978699%);fill-opacity:1;" d="M 6.636719 161.132812 C 6.835938 161.910156 6.855469 162.503906 6.570312 163.082031 C 6.410156 163.5 6.03125 163.808594 5.5625 163.84375 C 4.804688 163.917969 4.101562 163.792969 3.503906 163.273438 C 1.53125 161.707031 0.0117188 159.6875 -1.261719 157.523438 C -1.441406 157.164062 -1.425781 156.675781 -1.445312 156.261719 C -1.480469 155.792969 -1.230469 155.464844 -0.816406 155.265625 C -0.511719 155.101562 -0.257812 155.140625 -0.00390625 155.355469 C 0.230469 155.515625 0.519531 155.660156 0.699219 155.839844 C 1.515625 156.652344 2.527344 157.335938 3.21875 158.308594 C 3.578125 158.847656 4.230469 158.8125 4.769531 158.988281 C 4.898438 159.007812 5.097656 159.0625 5.1875 159.152344 C 5.785156 159.855469 6.273438 160.59375 6.636719 161.132812 Z M 6.636719 161.132812 "/>
</g>
</g>
</g>
<g clip-path="url(#clip19)" clip-rule="nonzero">
<g clip-path="url(#clip20)" clip-rule="nonzero">
<g clip-path="url(#clip21)" clip-rule="nonzero">
<path style=" stroke:none;fill-rule:nonzero;fill:rgb(95.689392%,43.919373%,10.978699%);fill-opacity:1;" d="M 130.3125 87.433594 C 129.773438 87.257812 129.230469 87.078125 128.722656 86.824219 C 128.453125 86.734375 128.199219 86.519531 128.109375 86.25 C 127.871094 85.726562 127.726562 85.113281 127.488281 84.589844 C 127.070312 83.527344 126.796875 82.351562 126.214844 81.34375 C 126.035156 80.980469 126.304688 80.351562 126.679688 80.222656 C 127.113281 80.078125 127.527344 79.875 127.941406 79.859375 C 128.539062 79.839844 129.117188 79.945312 129.65625 80.125 C 129.929688 80.214844 130.21875 80.355469 130.363281 80.609375 C 130.890625 81.277344 131.378906 82.015625 131.921875 82.734375 C 132.230469 83.113281 132.304688 83.511719 132.160156 83.980469 C 131.980469 84.523438 131.894531 85.15625 131.550781 85.570312 C 131.011719 86.117188 130.835938 86.839844 130.3125 87.433594 Z M 130.3125 87.433594 "/>
</g>
</g>
</g>
<g clip-path="url(#clip22)" clip-rule="nonzero">
<g clip-path="url(#clip23)" clip-rule="nonzero">
<g clip-path="url(#clip24)" clip-rule="nonzero">
<path style=" stroke:none;fill-rule:nonzero;fill:rgb(95.689392%,43.919373%,10.978699%);fill-opacity:1;" d="M 43.667969 105.761719 C 43.707031 106.050781 43.925781 106.519531 43.816406 106.917969 C 43.710938 107.3125 43.332031 107.621094 43.101562 108 C 42.34375 108.980469 40.6875 109.234375 39.492188 108.554688 C 38.753906 108.140625 38.226562 107.113281 38.441406 106.316406 C 38.546875 105.917969 38.6875 105.449219 38.867188 105.085938 C 39.261719 104.292969 39.53125 103.480469 39.273438 102.539062 C 39.238281 102.433594 39.363281 102.269531 39.382812 102.144531 C 39.613281 101.402344 40.660156 101.109375 41.203125 101.652344 C 41.835938 102.28125 42.414062 102.929688 42.941406 103.597656 C 43.503906 104.191406 43.179688 105.023438 43.667969 105.761719 Z M 43.667969 105.761719 "/>
</g>
</g>
</g>
<g clip-path="url(#clip25)" clip-rule="nonzero">
<g clip-path="url(#clip26)" clip-rule="nonzero">
<g clip-path="url(#clip27)" clip-rule="nonzero">
<path style=" stroke:none;fill-rule:nonzero;fill:rgb(95.689392%,43.919373%,10.978699%);fill-opacity:1;" d="M 37.328125 114.28125 C 38.285156 114.082031 38.859375 113.648438 39.507812 113.246094 C 40.121094 112.921875 40.609375 113.117188 41.097656 113.496094 C 41.332031 113.660156 41.53125 113.890625 41.730469 114.125 C 41.949219 114.414062 41.914062 115.027344 41.71875 115.335938 C 41.179688 116.058594 40.457031 116.605469 39.648438 116.878906 C 39.378906 116.96875 39.105469 117.058594 38.820312 117.097656 C 38.078125 117.222656 37.394531 117.515625 36.835938 118.003906 C 36.601562 118.203125 36.351562 118.347656 36.097656 118.492188 C 35.503906 118.875 34.964844 118.875 34.511719 118.425781 C 33.914062 117.902344 33.640625 117.089844 33.964844 116.441406 C 34.125 116.023438 34.410156 115.628906 34.773438 115.445312 C 35.601562 115.046875 36.535156 114.609375 37.328125 114.28125 Z M 37.328125 114.28125 "/>
</g>
</g>
</g>
<g clip-path="url(#clip28)" clip-rule="nonzero">
<g clip-path="url(#clip29)" clip-rule="nonzero">
<g clip-path="url(#clip30)" clip-rule="nonzero">
<path style=" stroke:none;fill-rule:nonzero;fill:rgb(95.689392%,43.919373%,10.978699%);fill-opacity:1;" d="M 104.515625 50.144531 C 104.929688 49.945312 105.796875 49.832031 106.679688 49.777344 C 107.328125 49.738281 107.78125 50.007812 108 50.660156 C 108.089844 50.929688 108.128906 51.21875 108.183594 51.5625 C 108.277344 52.375 107.808594 52.953125 106.945312 53.0625 C 106.761719 53.0625 106.65625 53.101562 106.476562 53.101562 C 105.625 52.902344 105.066406 53.210938 104.671875 54.007812 C 104.53125 54.296875 104.367188 54.53125 104.136719 54.730469 C 103.882812 54.875 103.613281 54.96875 103.304688 54.949219 C 102.566406 54.898438 101.933594 54.269531 101.804688 53.527344 C 101.710938 52.894531 101.835938 52.371094 101.996094 51.777344 C 102.140625 51.304688 102.390625 50.980469 102.804688 50.78125 C 103.148438 50.546875 103.597656 50.453125 104.515625 50.144531 Z M 104.515625 50.144531 "/>
</g>
</g>
</g>
<g clip-path="url(#clip31)" clip-rule="nonzero">
<g clip-path="url(#clip32)" clip-rule="nonzero">
<g clip-path="url(#clip33)" clip-rule="nonzero">
<path style=" stroke:none;fill-rule:nonzero;fill:rgb(95.689392%,43.919373%,10.978699%);fill-opacity:1;" d="M 91.632812 11.335938 C 91.578125 11.175781 91.46875 11.03125 91.484375 10.90625 C 91.59375 10.328125 91.824219 9.765625 91.875 9.207031 C 91.929688 8.464844 92.25 7.816406 92.429688 7.09375 C 92.609375 6.550781 92.515625 5.917969 92.566406 5.359375 C 92.621094 4.980469 93.140625 4.5625 93.503906 4.5625 C 93.808594 4.578125 94.097656 4.542969 94.371094 4.632812 C 95.324219 4.789062 95.816406 5.890625 95.351562 6.652344 C 94.8125 7.554688 94.019531 8.242188 93.699219 9.253906 C 93.378906 10.085938 92.984375 10.882812 92.335938 11.460938 C 92.246094 11.550781 92.066406 11.554688 91.9375 11.535156 C 91.867188 11.5 91.722656 11.425781 91.632812 11.335938 Z M 91.632812 11.335938 "/>
</g>
</g>
</g>
<g clip-path="url(#clip34)" clip-rule="nonzero">
<g clip-path="url(#clip35)" clip-rule="nonzero">
<g clip-path="url(#clip36)" clip-rule="nonzero">
<path style=" stroke:none;fill-rule:nonzero;fill:rgb(95.689392%,43.919373%,10.978699%);fill-opacity:1;" d="M 23.773438 25.566406 C 23.734375 25.277344 23.570312 24.972656 23.660156 24.703125 C 23.929688 23.707031 24.269531 22.75 24.679688 21.828125 C 24.839844 21.410156 25.238281 21.15625 25.667969 21.011719 C 26.550781 20.59375 27.382812 20.738281 28.125 21.332031 C 28.449219 21.582031 28.542969 22.214844 28.34375 22.523438 C 27.859375 23.226562 26.957031 23.589844 26.492188 24.351562 C 26.097656 24.964844 25.628906 25.542969 25.21875 26.105469 C 25.054688 26.339844 24.226562 26.199219 24.027344 25.964844 C 23.917969 25.820312 23.863281 25.65625 23.773438 25.566406 Z M 23.773438 25.566406 "/>
</g>
</g>
</g>
<g clip-path="url(#clip37)" clip-rule="nonzero">
<g clip-path="url(#clip38)" clip-rule="nonzero">
<g clip-path="url(#clip39)" clip-rule="nonzero">
<path style=" stroke:none;fill-rule:nonzero;fill:rgb(95.689392%,43.919373%,10.978699%);fill-opacity:1;" d="M 24.988281 32.75 C 25.042969 32.914062 25.132812 33.363281 25.207031 33.761719 C 25.355469 35.097656 24.457031 36.363281 23.089844 36.765625 C 22.546875 36.945312 21.878906 36.570312 21.640625 36.046875 C 21.351562 35.363281 21.277344 34.601562 21.582031 33.898438 C 21.902344 33.246094 22.226562 32.597656 22.621094 31.980469 C 22.78125 31.746094 23.035156 31.601562 23.304688 31.511719 C 24.171875 31.21875 24.640625 31.542969 24.988281 32.75 Z M 24.988281 32.75 "/>
</g>
</g>
</g>
<g clip-path="url(#clip40)" clip-rule="nonzero">
<g clip-path="url(#clip41)" clip-rule="nonzero">
<g clip-path="url(#clip42)" clip-rule="nonzero">
<path style=" stroke:none;fill-rule:nonzero;fill:rgb(95.689392%,43.919373%,10.978699%);fill-opacity:1;" d="M 63.460938 24.558594 C 63.859375 25.570312 63.71875 26.582031 63.179688 27.484375 C 62.984375 27.792969 62.371094 27.9375 62.007812 27.757812 C 61.195312 27.308594 60.667969 26.644531 60.234375 25.886719 C 60.089844 25.632812 60.105469 25.324219 60.125 25.019531 C 60.140625 24.710938 60.230469 24.441406 60.320312 24.167969 C 60.441406 23.644531 61.089844 23.066406 61.578125 23.082031 C 62.191406 23.117188 62.734375 23.296875 63.078125 23.785156 C 63.277344 24.015625 63.367188 24.289062 63.460938 24.558594 Z M 63.460938 24.558594 "/>
</g>
</g>
</g>
<g clip-path="url(#clip43)" clip-rule="nonzero">
<g clip-path="url(#clip44)" clip-rule="nonzero">
<g clip-path="url(#clip45)" clip-rule="nonzero">
<path style=" stroke:none;fill-rule:nonzero;fill:rgb(95.689392%,43.919373%,10.978699%);fill-opacity:1;" d="M 50.21875 159.535156 C 50.703125 159.371094 51.210938 159.441406 51.390625 159.804688 C 51.589844 160.21875 51.71875 160.597656 51.503906 161.03125 C 51.34375 161.265625 51.253906 161.539062 51.089844 161.773438 C 50.929688 162.007812 50.695312 162.207031 50.460938 162.40625 C 50.230469 162.605469 49.976562 162.75 49.742188 162.949219 C 48.859375 163.730469 48.375 163.710938 47.613281 162.703125 C 47.214844 162.234375 47.214844 161.875 47.535156 161.582031 C 48.273438 160.734375 48.972656 159.773438 50.21875 159.535156 Z M 50.21875 159.535156 "/>
</g>
</g>
</g>
<g clip-path="url(#clip46)" clip-rule="nonzero">
<g clip-path="url(#clip47)" clip-rule="nonzero">
<g clip-path="url(#clip48)" clip-rule="nonzero">
<path style=" stroke:none;fill-rule:nonzero;fill:rgb(95.689392%,43.919373%,10.978699%);fill-opacity:1;" d="M 48.457031 102.460938 C 48.675781 102.929688 48.496094 103.472656 47.976562 104.070312 C 47.527344 104.523438 46.695312 104.742188 46.371094 104.488281 C 45.902344 104.164062 45.414062 103.789062 45.160156 103.210938 C 45.121094 103.101562 45.066406 102.941406 45.066406 102.757812 C 45.03125 102.472656 45.117188 102.199219 45.425781 102.035156 C 46.074219 101.636719 46.777344 101.402344 47.515625 101.632812 C 47.914062 101.742188 48.238281 101.992188 48.457031 102.460938 Z M 48.457031 102.460938 "/>
</g>
</g>
</g>
<g clip-path="url(#clip49)" clip-rule="nonzero">
<g clip-path="url(#clip50)" clip-rule="nonzero">
<g clip-path="url(#clip51)" clip-rule="nonzero">
<path style=" stroke:none;fill-rule:nonzero;fill:rgb(95.689392%,43.919373%,10.978699%);fill-opacity:1;" d="M 113.578125 138.023438 C 113.761719 138.382812 113.5625 138.871094 113.1875 139.179688 C 112.808594 139.488281 112.410156 139.558594 111.941406 139.417969 C 111.347656 139.257812 110.894531 138.625 110.964844 138.121094 C 110.996094 137.6875 111.085938 137.234375 111.246094 136.820312 C 111.335938 136.546875 111.679688 136.492188 112.003906 136.5625 C 112.601562 136.726562 113.089844 137.101562 113.433594 137.589844 C 113.488281 137.75 113.542969 137.914062 113.578125 138.023438 Z M 113.578125 138.023438 "/>
</g>
</g>
</g>
<g clip-path="url(#clip52)" clip-rule="nonzero">
<g clip-path="url(#clip53)" clip-rule="nonzero">
<g clip-path="url(#clip54)" clip-rule="nonzero">
<path style=" stroke:none;fill-rule:nonzero;fill:rgb(95.689392%,43.919373%,10.978699%);fill-opacity:1;" d="M 132.796875 4.707031 C 133.03125 4.691406 133.339844 4.707031 133.589844 4.742188 C 133.917969 4.8125 134.0625 5.066406 134.152344 5.335938 C 134.242188 5.609375 134.226562 5.914062 134.066406 6.148438 C 133.542969 6.746094 132.824219 6.929688 132.171875 6.605469 C 131.8125 6.425781 131.648438 5.941406 131.863281 5.503906 C 132.023438 5.089844 132.257812 4.710938 132.796875 4.707031 Z M 132.796875 4.707031 "/>
</g>
</g>
</g>
<g clip-path="url(#clip55)" clip-rule="nonzero">
<g clip-path="url(#clip56)" clip-rule="nonzero">
<g clip-path="url(#clip57)" clip-rule="nonzero">
<path style=" stroke:none;fill-rule:nonzero;fill:rgb(95.689392%,43.919373%,10.978699%);fill-opacity:1;" d="M 882.484375 463.464844 C 883.382812 462.816406 884.324219 462.207031 885.53125 462.355469 C 886.351562 462.4375 887.136719 462.390625 887.914062 462.511719 C 888.730469 462.683594 889.402344 463.148438 889.710938 463.945312 C 890.371094 465.585938 890.859375 467.214844 891.390625 468.890625 C 891.542969 469.332031 891.34375 469.84375 891.109375 470.226562 C 890.964844 470.523438 890.777344 470.773438 890.59375 471.023438 C 890.21875 471.613281 889.554688 471.886719 888.953125 471.683594 C 888.0625 471.25 887.164062 470.988281 886.234375 471.335938 C 885.972656 471.410156 885.578125 471.433594 885.28125 471.289062 C 883.917969 470.789062 882.640625 470.207031 881.835938 468.863281 C 881.472656 468.28125 881.28125 467.707031 881.355469 467.058594 C 881.488281 466.109375 881.707031 465.164062 881.925781 464.222656 C 882.023438 463.964844 882.296875 463.71875 882.484375 463.464844 Z M 882.484375 463.464844 "/>
</g>
</g>
</g>
<g clip-path="url(#clip58)" clip-rule="nonzero">
<g clip-path="url(#clip59)" clip-rule="nonzero">
<g clip-path="url(#clip60)" clip-rule="nonzero">
<path style=" stroke:none;fill-rule:nonzero;fill:rgb(95.689392%,43.919373%,10.978699%);fill-opacity:1;" d="M 844.78125 423.246094 C 844.558594 423.367188 844.964844 423.082031 845.363281 422.882812 C 845.945312 422.519531 846.597656 422.507812 847.242188 422.671875 C 848.617188 423 849.488281 423.867188 849.8125 425.226562 C 849.921875 425.710938 849.988281 426.148438 850.09375 426.632812 C 850.125 426.9375 850.328125 427.164062 850.578125 427.4375 C 850.953125 427.757812 851.371094 428.125 851.527344 428.480469 C 851.863281 429.582031 852.695312 430.40625 853.167969 431.382812 C 853.207031 431.515625 853.234375 431.820312 853.234375 431.820312 C 852.972656 431.894531 852.617188 432.050781 852.359375 431.953125 C 851.761719 431.75 851.164062 431.546875 850.613281 431.214844 C 849.769531 430.742188 848.921875 430.265625 848.121094 429.75 C 847.027344 429 845.828125 428.683594 844.472656 428.835938 C 844.039062 428.898438 843.515625 428.875 843.042969 428.808594 C 842.222656 428.726562 841.652344 427.914062 841.820312 427.097656 C 841.828125 426.925781 841.878906 426.796875 841.886719 426.625 C 842.105469 425.679688 842.539062 424.789062 843.386719 424.265625 C 843.65625 424.105469 843.929688 423.855469 844.78125 423.246094 Z M 844.78125 423.246094 "/>
</g>
</g>
</g>
<g clip-path="url(#clip61)" clip-rule="nonzero">
<g clip-path="url(#clip62)" clip-rule="nonzero">
<g clip-path="url(#clip63)" clip-rule="nonzero">
<path style=" stroke:none;fill-rule:nonzero;fill:rgb(95.689392%,43.919373%,10.978699%);fill-opacity:1;" d="M 950.09375 404.941406 C 950.300781 405.171875 951.007812 405.769531 951.667969 406.496094 C 952.125 406.996094 952.269531 407.609375 952.324219 408.222656 C 952.382812 408.832031 952.222656 409.476562 952.019531 410.074219 C 951.863281 410.632812 950.9375 410.976562 950.429688 410.691406 C 948.480469 409.640625 946.433594 408.847656 944.628906 407.5 C 943.664062 406.804688 943.28125 405.742188 943.070312 404.6875 C 942.933594 403.902344 943.144531 403.128906 943.695312 402.460938 C 944.34375 401.625 945.097656 401.269531 946.175781 401.453125 C 946.777344 401.570312 947.421875 401.730469 947.875 402.230469 C 948.492188 402.996094 949.105469 403.765625 950.09375 404.941406 Z M 950.09375 404.941406 "/>
</g>
</g>
</g>
<g clip-path="url(#clip64)" clip-rule="nonzero">
<g clip-path="url(#clip65)" clip-rule="nonzero">
<g clip-path="url(#clip66)" clip-rule="nonzero">
<path style=" stroke:none;fill-rule:nonzero;fill:rgb(95.689392%,43.919373%,10.978699%);fill-opacity:1;" d="M 988.804688 410.988281 C 989.125 410.613281 989.929688 410.132812 990.777344 409.695312 C 991.398438 409.378906 991.960938 409.449219 992.457031 409.992188 C 992.664062 410.21875 992.824219 410.488281 993.027344 410.800781 C 993.46875 411.5625 993.257812 412.332031 992.453125 412.816406 C 992.273438 412.894531 992.183594 412.976562 992.007812 413.054688 C 991.085938 413.226562 990.671875 413.773438 990.625 414.726562 C 990.609375 415.070312 990.550781 415.371094 990.40625 415.667969 C 990.21875 415.921875 989.992188 416.128906 989.683594 416.242188 C 988.933594 416.511719 988.039062 416.164062 987.59375 415.488281 C 987.230469 414.90625 987.125 414.339844 987.027344 413.683594 C 986.964844 413.15625 987.070312 412.730469 987.394531 412.351562 C 987.628906 411.972656 988.03125 411.691406 988.804688 410.988281 Z M 988.804688 410.988281 "/>
</g>
</g>
</g>
<g clip-path="url(#clip67)" clip-rule="nonzero">
<g clip-path="url(#clip68)" clip-rule="nonzero">
<g clip-path="url(#clip69)" clip-rule="nonzero">
<path style=" stroke:none;fill-rule:nonzero;fill:rgb(95.689392%,43.919373%,10.978699%);fill-opacity:1;" d="M 959.386719 378.335938 C 959.265625 378.199219 959.09375 378.105469 959.058594 377.972656 C 958.914062 377.359375 958.902344 376.707031 958.710938 376.132812 C 958.441406 375.382812 958.480469 374.601562 958.34375 373.8125 C 958.285156 373.203125 957.921875 372.621094 957.730469 372.046875 C 957.621094 371.648438 957.953125 371.015625 958.308594 370.859375 C 958.617188 370.742188 958.886719 370.582031 959.191406 370.554688 C 960.203125 370.296875 961.160156 371.171875 961.027344 372.117188 C 960.886719 373.242188 960.40625 374.261719 960.527344 375.394531 C 960.566406 376.351562 960.523438 377.304688 960.132812 378.15625 C 960.085938 378.285156 959.90625 378.363281 959.777344 378.398438 C 959.6875 378.394531 959.515625 378.386719 959.386719 378.335938 Z M 959.386719 378.335938 "/>
</g>
</g>
</g>
<g clip-path="url(#clip70)" clip-rule="nonzero">
<g clip-path="url(#clip71)" clip-rule="nonzero">
<g clip-path="url(#clip72)" clip-rule="nonzero">
<path style=" stroke:none;fill-rule:nonzero;fill:rgb(95.689392%,43.919373%,10.978699%);fill-opacity:1;" d="M 898.710938 421.605469 C 898.550781 421.335938 898.257812 421.105469 898.226562 420.800781 C 898.0625 419.707031 897.984375 418.617188 897.992188 417.53125 C 897.972656 417.050781 898.25 416.632812 898.613281 416.300781 C 899.304688 415.511719 900.183594 415.292969 901.167969 415.558594 C 901.597656 415.664062 901.960938 416.246094 901.898438 416.632812 C 901.726562 417.539062 900.996094 418.285156 900.863281 419.234375 C 900.742188 420.007812 900.53125 420.78125 900.363281 421.511719 C 900.308594 421.8125 899.429688 422.03125 899.132812 421.886719 C 898.960938 421.789062 898.839844 421.65625 898.710938 421.605469 Z M 898.710938 421.605469 "/>
</g>
</g>
</g>
<g clip-path="url(#clip73)" clip-rule="nonzero">
<g clip-path="url(#clip74)" clip-rule="nonzero">
<g clip-path="url(#clip75)" clip-rule="nonzero">
<path style=" stroke:none;fill-rule:nonzero;fill:rgb(95.689392%,43.919373%,10.978699%);fill-opacity:1;" d="M 903.003906 428.152344 C 903.128906 428.289062 903.410156 428.695312 903.65625 429.054688 C 904.378906 430.304688 904.039062 431.9375 902.863281 432.925781 C 902.410156 433.335938 901.589844 433.253906 901.132812 432.839844 C 900.550781 432.289062 900.148438 431.578125 900.144531 430.75 C 900.179688 429.972656 900.21875 429.191406 900.34375 428.414062 C 900.398438 428.113281 900.585938 427.863281 900.8125 427.65625 C 901.539062 426.996094 902.140625 427.113281 903.003906 428.152344 Z M 903.003906 428.152344 "/>
</g>
</g>
</g>
<g clip-path="url(#clip76)" clip-rule="nonzero">
<g clip-path="url(#clip77)" clip-rule="nonzero">
<g clip-path="url(#clip78)" clip-rule="nonzero">
<path style=" stroke:none;fill-rule:nonzero;fill:rgb(95.689392%,43.919373%,10.978699%);fill-opacity:1;" d="M 795.0625 476.296875 C 794.859375 475.984375 794.578125 475.578125 794.378906 475.175781 C 794.175781 474.863281 794.234375 474.5625 794.507812 474.316406 C 795.054688 473.734375 796.066406 473.480469 796.613281 473.808594 C 797.539062 474.460938 798.46875 475.027344 799.25 475.890625 C 799.910156 476.617188 799.996094 477.621094 799.386719 478.503906 C 799.199219 478.84375 798.496094 478.980469 798.117188 478.746094 C 797.738281 478.511719 797.269531 478.269531 796.9375 477.992188 C 796.222656 477.480469 795.6875 476.890625 795.0625 476.296875 Z M 795.0625 476.296875 "/>
</g>
</g>
</g>
<g clip-path="url(#clip79)" clip-rule="nonzero">
<g clip-path="url(#clip80)" clip-rule="nonzero">
<g clip-path="url(#clip81)" clip-rule="nonzero">
<path style=" stroke:none;fill-rule:nonzero;fill:rgb(95.689392%,43.919373%,10.978699%);fill-opacity:1;" d="M 907.386719 367.695312 C 907.882812 368.238281 908.0625 369.074219 907.722656 369.796875 C 907.386719 370.519531 906.964844 371.148438 906.457031 371.777344 C 906.175781 372.195312 905.695312 372.304688 905.214844 372.324219 C 904.691406 372.386719 904.226562 372.058594 904.117188 371.664062 C 903.863281 370.5625 903.785156 369.476562 904.054688 368.402344 C 904.214844 367.757812 904.585938 367.253906 905.207031 367.023438 C 905.957031 366.757812 906.816406 366.972656 907.386719 367.695312 Z M 907.386719 367.695312 "/>
</g>
</g>
</g>
<g clip-path="url(#clip82)" clip-rule="nonzero">
<g clip-path="url(#clip83)" clip-rule="nonzero">
<g clip-path="url(#clip84)" clip-rule="nonzero">
<path style=" stroke:none;fill-rule:nonzero;fill:rgb(95.689392%,43.919373%,10.978699%);fill-opacity:1;" d="M 830.476562 482.269531 C 830.269531 481.128906 829.488281 480.265625 828.964844 479.328125 C 828.882812 479.238281 829.023438 479.027344 829.113281 478.945312 C 829.390625 478.613281 830.089844 478.558594 830.386719 478.703125 C 831.960938 479.34375 832.902344 480.5625 833.527344 482.070312 C 833.644531 482.378906 833.539062 482.722656 833.269531 482.882812 C 832.695312 483.160156 832.078125 483.300781 831.503906 483.492188 C 831.109375 483.601562 830.851562 483.503906 830.785156 483.152344 C 830.582031 482.839844 830.550781 482.535156 830.476562 482.269531 Z M 830.476562 482.269531 "/>
</g>
</g>
</g>
<g clip-path="url(#clip85)" clip-rule="nonzero">
<g clip-path="url(#clip86)" clip-rule="nonzero">
<g clip-path="url(#clip87)" clip-rule="nonzero">
<path style=" stroke:none;fill-rule:nonzero;fill:rgb(95.689392%,43.919373%,10.978699%);fill-opacity:1;" d="M 937.351562 403.5 C 938.179688 404.320312 938.476562 405.378906 938.335938 406.5 C 938.273438 406.890625 937.734375 407.296875 937.300781 407.277344 C 936.308594 407.183594 935.503906 406.753906 934.746094 406.195312 C 934.496094 406.011719 934.378906 405.703125 934.265625 405.390625 C 934.148438 405.082031 934.121094 404.777344 934.089844 404.472656 C 933.988281 403.902344 934.375 403.050781 934.863281 402.859375 C 935.480469 402.628906 936.089844 402.570312 936.640625 402.902344 C 936.9375 403.046875 937.144531 403.273438 937.351562 403.5 Z M 937.351562 403.5 "/>
</g>
</g>
</g>
<g clip-path="url(#clip88)" clip-rule="nonzero">
<g clip-path="url(#clip89)" clip-rule="nonzero">
<g clip-path="url(#clip90)" clip-rule="nonzero">
<path style=" stroke:none;fill-rule:nonzero;fill:rgb(95.689392%,43.919373%,10.978699%);fill-opacity:1;" d="M 935.164062 348.847656 C 935.199219 348.980469 935.324219 349.113281 935.359375 349.246094 C 935.644531 350.5625 934.847656 351.871094 933.613281 352.246094 C 933.128906 352.351562 932.734375 352.464844 932.21875 352.351562 C 931.789062 352.242188 931.375 351.789062 931.394531 351.355469 C 931.382812 350.703125 931.671875 350.109375 932.210938 349.703125 C 932.976562 349.175781 933.820312 348.738281 934.824219 348.65625 C 934.910156 348.660156 935.035156 348.796875 935.164062 348.847656 Z M 935.164062 348.847656 "/>
</g>
</g>
</g>
<g clip-path="url(#clip91)" clip-rule="nonzero">
<g clip-path="url(#clip92)" clip-rule="nonzero">
<g clip-path="url(#clip93)" clip-rule="nonzero">
<path style=" stroke:none;fill-rule:nonzero;fill:rgb(95.689392%,43.919373%,10.978699%);fill-opacity:1;" d="M 923.550781 324.484375 C 924.042969 324.117188 924.5 323.703125 925.039062 323.296875 C 925.355469 323.007812 925.957031 323.210938 926.238281 323.617188 C 926.519531 324.105469 926.476562 325.058594 926.152344 325.433594 C 926.015625 325.558594 925.921875 325.726562 925.789062 325.765625 C 924.484375 325.875 923.648438 326.964844 922.375 327.292969 C 922.242188 327.332031 922.027344 327.277344 921.898438 327.226562 C 921.605469 326.996094 921.53125 326.730469 921.542969 326.472656 C 921.554688 326.296875 921.5625 326.125 921.699219 326 C 922.328125 325.511719 922.960938 325.019531 923.550781 324.484375 Z M 923.550781 324.484375 "/>
</g>
</g>
</g>
<g clip-path="url(#clip94)" clip-rule="nonzero">
<g clip-path="url(#clip95)" clip-rule="nonzero">
<g clip-path="url(#clip96)" clip-rule="nonzero">
<path style=" stroke:none;fill-rule:nonzero;fill:rgb(95.689392%,43.919373%,10.978699%);fill-opacity:1;" d="M 956.164062 486.667969 C 956.582031 487.035156 956.640625 487.644531 956.382812 488.460938 C 956.136719 489.097656 955.414062 489.671875 954.984375 489.5625 C 954.382812 489.449219 953.738281 489.285156 953.238281 488.828125 C 953.15625 488.738281 953.035156 488.601562 952.957031 488.421875 C 952.792969 488.15625 952.765625 487.847656 952.996094 487.554688 C 953.460938 486.882812 954.050781 486.347656 954.882812 486.257812 C 955.320312 486.191406 955.75 486.300781 956.164062 486.667969 Z M 956.164062 486.667969 "/>
</g>
</g>
</g>
<g clip-path="url(#clip97)" clip-rule="nonzero">
<g clip-path="url(#clip98)" clip-rule="nonzero">
<g clip-path="url(#clip99)" clip-rule="nonzero">
<path style=" stroke:none;fill-rule:nonzero;fill:rgb(95.689392%,43.919373%,10.978699%);fill-opacity:1;" d="M 985.753906 281.984375 C 985.128906 281.390625 985.050781 280.300781 985.550781 279.847656 C 986.140625 279.3125 987.011719 279.265625 987.679688 279.820312 C 987.972656 280.050781 988.132812 280.320312 988.117188 280.667969 C 988.101562 281.011719 988.089844 281.273438 987.984375 281.617188 C 987.773438 282.472656 986.796875 282.859375 986.128906 282.308594 C 986.003906 282.171875 985.835938 282.074219 985.753906 281.984375 Z M 985.753906 281.984375 "/>
</g>
</g>
</g>
<g clip-path="url(#clip100)" clip-rule="nonzero">
<g clip-path="url(#clip101)" clip-rule="nonzero">
<g clip-path="url(#clip102)" clip-rule="nonzero">
<path style=" stroke:none;fill-rule:nonzero;fill:rgb(95.689392%,43.919373%,10.978699%);fill-opacity:1;" d="M 964.351562 330.371094 C 964.890625 330.050781 965.839844 330.183594 965.988281 330.710938 C 966.203125 331.675781 966.777344 332.398438 967.214844 333.246094 C 967.253906 333.289062 967.113281 333.5 967.023438 333.582031 C 966.796875 333.789062 966.53125 333.863281 966.234375 333.71875 C 966.109375 333.667969 965.898438 333.527344 965.902344 333.441406 C 965.601562 332.472656 964.800781 331.957031 964.226562 331.234375 C 963.976562 330.960938 964.082031 330.617188 964.351562 330.371094 Z M 964.351562 330.371094 "/>
</g>
</g>
</g>
<g clip-path="url(#clip103)" clip-rule="nonzero">
<g clip-path="url(#clip104)" clip-rule="nonzero">
<g clip-path="url(#clip105)" clip-rule="nonzero">
<path style=" stroke:none;fill-rule:nonzero;fill:rgb(95.689392%,43.919373%,10.978699%);fill-opacity:1;" d="M 997.058594 354.0625 C 997.28125 353.941406 997.59375 353.828125 997.855469 353.753906 C 998.207031 353.683594 998.460938 353.867188 998.664062 354.097656 C 998.871094 354.324219 998.988281 354.632812 998.929688 354.933594 C 998.675781 355.746094 998.042969 356.238281 997.261719 356.199219 C 996.828125 356.179688 996.457031 355.769531 996.484375 355.25 C 996.460938 354.769531 996.527344 354.296875 997.058594 354.0625 Z M 997.058594 354.0625 "/>
</g>
</g>
</g>
<g clip-path="url(#clip106)" clip-rule="nonzero">
<path style=" stroke:none;fill-rule:nonzero;fill:rgb(99.609375%,51.368713%,19.60907%);fill-opacity:1;" d="M 0.28125 391.125 L 1012.21875 391.125 L 1012.21875 583.023438 L 0.28125 583.023438 Z M 0.28125 391.125 "/>
</g>
<g clip-path="url(#clip107)" clip-rule="nonzero">
<g clip-path="url(#clip108)" clip-rule="nonzero">
<g clip-path="url(#clip109)" clip-rule="nonzero">
<path style=" stroke:none;fill-rule:nonzero;fill:rgb(100%,85.879517%,25.099182%);fill-opacity:1;" d="M 960.433594 364.734375 C 967.386719 367.402344 972.640625 372.617188 978.746094 376.558594 C 987.292969 381.960938 992.855469 389.652344 997.628906 398.445312 C 1001.714844 406.398438 1005.027344 414.867188 1007.453125 423.613281 C 1009.796875 430.359375 1011.664062 437.332031 1013.179688 444.175781 C 1014.460938 451.136719 1018.839844 456.042969 1022.570312 461.113281 C 1026.175781 466.53125 1031.089844 471.035156 1036.679688 474.203125 C 1042.566406 477.082031 1048.34375 479.726562 1054.230469 482.605469 C 1062.164062 486.40625 1069.792969 490.496094 1075.78125 497.546875 C 1078.199219 500.183594 1080.859375 502.703125 1083.707031 504.699219 C 1088.746094 508.855469 1092.761719 514.222656 1094.707031 520.433594 C 1097.675781 528.191406 1099.460938 536.511719 1099.832031 544.921875 C 1100.453125 558.742188 1094.609375 569.085938 1082.132812 575.300781 C 1072.210938 580.449219 1061.039062 582.988281 1049.863281 582.765625 C 1035.222656 582.296875 1020.851562 579.953125 1006.75 575.734375 C 990.71875 570.832031 977.480469 561.402344 965.21875 550.34375 C 956.828125 542.832031 948.625 534.792969 940.472656 527.167969 C 935.203125 522.539062 929.277344 518.660156 922.921875 515.417969 C 910.867188 508.773438 898.390625 502.765625 886.523438 495.59375 C 876.285156 489.394531 866.355469 482.324219 856.664062 475.136719 C 843.199219 465.230469 830.160156 454.6875 816.757812 444.605469 C 799.761719 431.867188 781.738281 420.34375 762.917969 410.507812 C 751.902344 404.824219 740.347656 402.886719 727.996094 402.640625 C 707.875 402.59375 688.5625 406.378906 669.074219 410.105469 C 652.773438 413.1875 637.082031 418.457031 621.222656 423.078125 C 616.609375 424.394531 612.007812 425.125 607.113281 425.554688 C 595.027344 426.785156 583.222656 425.550781 571.296875 424.664062 C 561.722656 423.828125 551.957031 423.515625 542.65625 420.804688 C 535.277344 418.777344 527.675781 416.273438 522.382812 410.058594 C 516.683594 403.304688 515.335938 399.867188 521.160156 390.699219 C 525.957031 382.746094 532.324219 375.9375 539.894531 370.742188 C 546.691406 366.058594 552.683594 360.300781 559.140625 354.90625 C 562.015625 352.378906 565 350.089844 568.335938 347.921875 C 574.757812 344.289062 581.472656 340.957031 588.121094 337.796875 C 590.496094 336.671875 592.984375 335.78125 595.585938 335.125 C 617.75 329.984375 640.578125 326.855469 663.367188 326.078125 C 683.789062 325.839844 704.117188 327.539062 724.222656 331.523438 C 746.683594 335.554688 769.0625 337.589844 791.792969 339.746094 C 809.117188 341.5625 826.308594 344.3125 843.570312 346.304688 C 865.699219 349.035156 888.019531 351.246094 910.210938 353.804688 C 925.121094 355.746094 939.832031 358.800781 954.285156 363.144531 C 955.863281 363.703125 957.390625 363.851562 958.96875 364.414062 Z M 1005.753906 572.425781 C 1006.453125 572.675781 1007.15625 572.921875 1007.855469 573.171875 C 1017.824219 575.132812 1027.601562 577.621094 1037.578125 578.996094 C 1052.539062 581.351562 1067.214844 580.054688 1081.238281 572.816406 C 1092.652344 566.8125 1098.597656 557.296875 1097.191406 544.574219 C 1096.222656 536.738281 1094.425781 529.007812 1092.15625 521.496094 C 1090.378906 515.9375 1087.175781 511.054688 1082.535156 507.4375 C 1079.402344 505.140625 1076.628906 502.382812 1073.855469 499.625 C 1068.160156 492.871094 1060.703125 488.84375 1052.886719 485.28125 C 1047 482.402344 1040.921875 480.046875 1035.335938 476.878906 C 1024.269531 470.78125 1017.699219 460.367188 1011.429688 449.667969 C 1010.585938 447.59375 1010.09375 445.644531 1009.902344 443.40625 C 1008.546875 437.210938 1006.71875 431.238281 1004.953125 425.089844 C 1001.242188 412.738281 997.058594 400.605469 989.25 390.34375 C 987.242188 387.660156 984.996094 385.085938 982.390625 382.980469 C 977.460938 379.0625 972.234375 375.429688 967.070312 371.625 C 965.503906 370.476562 964.046875 369.566406 962.296875 368.945312 C 945.523438 362.792969 928.007812 358.742188 910.21875 356.566406 C 886.386719 353.621094 862.539062 351.265625 838.644531 348.496094 C 820.792969 346.496094 802.953125 343.90625 785.167969 341.730469 C 769.609375 339.949219 753.984375 338.34375 738.488281 336.390625 C 724.105469 334.636719 710.035156 332.003906 695.824219 330.308594 C 675.511719 328.023438 655.574219 327.449219 635.496094 331.164062 C 623.925781 333.164062 612.367188 334.578125 600.796875 336.582031 C 596.304688 337.550781 591.867188 338.929688 587.589844 340.960938 C 582.726562 342.980469 578.203125 345.710938 573.453125 347.964844 C 568.34375 350.683594 563.332031 354.226562 559.136719 358.257812 C 553.332031 363.488281 547.347656 368.65625 541.027344 373.113281 C 533.691406 378.199219 528.265625 385.140625 523.363281 392.269531 C 519.25 398.300781 519.820312 402.25 524.539062 407.867188 C 528.054688 411.875 532.765625 414.730469 537.863281 415.949219 C 544.648438 417.964844 551.5625 419.628906 558.722656 420.59375 C 570.464844 422.003906 582.277344 422.652344 594.15625 423.125 C 605.621094 423.644531 617.066406 421.996094 627.90625 418.15625 C 636.261719 415.207031 644.664062 412.671875 653.230469 410.789062 C 667.175781 407.65625 681.226562 405.351562 695.285156 402.460938 C 709.34375 399.566406 723.933594 399.621094 738.339844 400.203125 C 749.214844 400.714844 758.785156 404.902344 768.285156 409.851562 C 784.246094 418.277344 799.363281 427.980469 813.929688 438.675781 C 827.972656 449.179688 841.472656 460.085938 855.515625 470.589844 C 866.597656 478.859375 878.15625 486.90625 890.023438 494.078125 C 901.25 500.824219 913.027344 506.582031 924.445312 512.804688 C 931.035156 515.933594 936.898438 519.988281 942.34375 524.679688 C 950.320312 532.242188 958.121094 539.742188 966.335938 547.195312 C 977.960938 557.828125 990.609375 567.246094 1005.753906 572.425781 Z M 680.324219 468.503906 C 673.660156 466.136719 665.070312 463.085938 656.652344 460.097656 C 654.546875 459.351562 652.332031 458.367188 650.414062 457.09375 C 643.84375 452.792969 643.816406 445.09375 650.664062 440.824219 C 653.699219 438.945312 657.199219 437.425781 660.6875 436.496094 C 672.992188 432.984375 685.535156 429.355469 698.007812 426.488281 C 716.917969 422.164062 735.773438 420.777344 754.558594 426.265625 C 760.46875 427.96875 766.070312 430.550781 770.945312 434.054688 C 781.738281 442.027344 793.019531 449.1875 803.511719 457.445312 C 812.789062 464.683594 822.429688 471.457031 832.605469 477.828125 C 836.96875 480.5625 841.929688 482.714844 846.351562 485.273438 C 864.097656 495.910156 880.933594 508 897.46875 520.375 C 906.34375 527.074219 916.542969 532.273438 925.90625 538.160156 C 939.277344 546.652344 952.890625 555.035156 965.839844 564.164062 C 975.300781 570.878906 984.042969 578.515625 993.144531 585.6875 C 994.761719 587.25 995.78125 589.386719 995.800781 591.558594 C 996.34375 593.921875 994.832031 595.945312 992.644531 596.550781 C 991.996094 596.714844 991.40625 596.703125 990.707031 596.453125 C 988.0625 596.105469 985.308594 595.523438 982.617188 594.761719 C 972.671875 591.625 963.289062 586.914062 954.816406 580.753906 C 944.359375 573.492188 933.535156 567.28125 922.71875 560.484375 C 916.726562 556.78125 910.984375 552.375 904.074219 550.710938 C 901.03125 549.828125 897.988281 548.945312 895.058594 548.296875 C 884.339844 545.675781 875.089844 540.027344 866.328125 533.5625 C 865.511719 533.078125 864.761719 532.414062 864.007812 531.753906 C 857.132812 524.976562 848.65625 522.164062 839.515625 520.101562 C 833.605469 518.394531 827.878906 516.167969 822.464844 513.0625 C 813.609375 508.535156 804.386719 504.472656 795.167969 500.410156 C 789.742188 497.894531 784.320312 495.375 778.65625 492.972656 C 766.21875 487.964844 753.394531 484.59375 740.0625 483.210938 C 724.628906 481.082031 709.515625 477.488281 694.726562 472.433594 C 690.742188 471.414062 686.410156 470.269531 680.324219 468.503906 Z M 977.578125 590.609375 C 979.15625 591.167969 980.847656 591.964844 982.484375 592.351562 C 985.179688 593.109375 987.933594 593.695312 990.75 594.101562 C 991.511719 594.175781 992.164062 594.011719 992.761719 593.4375 C 993.1875 592.800781 993.148438 591.800781 992.808594 591.089844 C 991.550781 589.066406 990.234375 587.21875 988.441406 585.59375 C 973.679688 572.667969 957.597656 561.238281 940.605469 551.261719 C 926.519531 543.109375 912.917969 534.140625 899.320312 525.171875 C 892.289062 520.507812 885.742188 515.027344 878.835938 510.015625 C 864.558594 499.621094 849.730469 490.21875 834.117188 481.914062 C 826.664062 477.886719 819.394531 473.335938 812.785156 468.03125 C 798.992188 456.828125 784.179688 446.835938 769.835938 436.617188 C 763.859375 432.328125 757.207031 429.375 750.054688 427.820312 C 732.777344 423.65625 715.449219 425.191406 698.25 429.136719 C 685.605469 431.941406 673.238281 435.632812 660.757812 439.085938 C 657.441406 440.078125 654.355469 441.542969 651.554688 443.308594 C 646.972656 446.214844 647.109375 451.386719 651.582031 454.355469 C 653.324219 455.566406 655.367188 456.488281 657.296875 457.171875 C 672.148438 462.054688 687.066406 466.757812 701.855469 471.8125 C 714.191406 475.996094 726.789062 478.890625 739.644531 480.5 C 753.675781 482.132812 767.613281 485.699219 780.691406 491.132812 C 788.746094 494.582031 796.800781 498.035156 804.792969 501.660156 C 810.394531 504.242188 816.292969 506.53125 821.707031 509.636719 C 828.046875 513.464844 835.113281 516.371094 842.3125 518.335938 C 850.050781 519.898438 857.34375 523.277344 863.484375 528.21875 C 874.144531 537.128906 886.074219 544.121094 900.023438 547.105469 C 904.128906 547.773438 908.160156 549.207031 911.832031 551.101562 C 926.03125 559.492188 940.105469 568.234375 954.117188 577.152344 C 961.789062 582.242188 968.734375 588.257812 977.578125 590.609375 Z M 815.4375 530.078125 C 828.113281 534.976562 838.351562 541.171875 848.828125 547.257812 C 862.5625 555.289062 876.660156 562.855469 890.394531 570.886719 C 899.066406 575.9375 907.550781 581.511719 916.398438 586.625 C 928.328125 593.621094 939.894531 601.078125 953.296875 605.050781 C 962.601562 607.761719 971.976562 609.710938 981.65625 611.375 C 994.789062 613.867188 1007.808594 616.125 1020.953125 618.035156 C 1026.410156 618.789062 1031.757812 619.308594 1037.113281 619.238281 C 1043.230469 619.242188 1049.433594 617.898438 1054.847656 614.890625 C 1060.671875 611.835938 1066.496094 608.777344 1072.03125 605.421875 C 1076.617188 602.515625 1081.089844 599.371094 1085.273438 595.929688 C 1088.984375 592.714844 1094.636719 592.355469 1098.523438 595.3125 C 1102.699219 598.570312 1104.539062 603.953125 1103.089844 609.15625 C 1102.082031 612.542969 1100.964844 615.695312 1099.257812 618.832031 C 1095.417969 625.75 1093.632812 633 1092.136719 640.550781 C 1090.007812 650.4375 1085.011719 659.507812 1077.933594 666.652344 C 1059.507812 685.734375 1037.039062 694.511719 1011.035156 694.34375 C 1005.566406 694.175781 1000.058594 693.007812 995.046875 690.441406 C 988.632812 687.375 981.667969 685.296875 975.378906 681.882812 C 966.40625 677.117188 957.796875 671.894531 949.1875 666.667969 C 926.328125 652.636719 904.140625 637.269531 882.804688 620.625 C 869.527344 610.195312 856.859375 598.601562 845.203125 586.378906 C 835.21875 576.132812 824.445312 566.984375 812.777344 558.703125 C 807.722656 555.136719 802.972656 551.277344 798.28125 547.25 C 795.910156 545.027344 793.664062 542.457031 792.070312 539.71875 C 789.445312 535.4375 791.050781 531.472656 795.613281 529.742188 C 801.890625 527.636719 809.011719 527.601562 815.4375 530.078125 Z M 814.503906 532.707031 C 808.605469 530.414062 802.132812 530.285156 796.320312 532.753906 C 793.296875 534.046875 792.4375 535.910156 794.144531 538.878906 C 795.226562 540.839844 796.605469 542.515625 798.226562 544.074219 C 803.667969 548.765625 809.285156 553.519531 815.152344 557.574219 C 826.644531 565.796875 837.53125 575.179688 847.339844 585.367188 C 858.417969 596.984375 870.394531 607.742188 883.035156 617.75 C 904.546875 634.457031 927.023438 650.125 950.171875 664.453125 C 958.78125 669.679688 967.390625 674.90625 976.363281 679.667969 C 982.714844 682.910156 989.253906 685.625 995.917969 687.992188 C 999.824219 689.773438 1003.808594 690.792969 1008.152344 691.347656 C 1035.195312 692.476562 1058.4375 683.1875 1077.0625 662.992188 C 1083.789062 655.722656 1088.199219 646.640625 1089.851562 636.980469 C 1090.914062 630.652344 1092.914062 624.464844 1095.964844 618.648438 C 1097.671875 615.511719 1099.027344 612.246094 1100.035156 608.859375 C 1101.289062 604.769531 1099.902344 600.335938 1096.539062 597.566406 C 1093.582031 595.332031 1090.339844 595.5625 1086.167969 598.417969 C 1083.484375 600.417969 1081.023438 602.898438 1078.046875 604.601562 C 1070.726562 609.097656 1063.175781 613.117188 1055.628906 617.140625 C 1049.742188 620.371094 1043.238281 622.003906 1036.59375 621.8125 C 1031.0625 621.820312 1025.480469 621.414062 1019.90625 620.421875 C 1006.824219 618.339844 993.691406 615.84375 980.546875 613.9375 C 970.746094 612.625 961.078125 610.375 951.660156 607.425781 C 939.148438 603.179688 928.097656 596.496094 916.804688 589.925781 C 907.433594 584.625 898.308594 578.625 888.996094 573.152344 C 875.261719 565.121094 861.164062 557.550781 847.253906 549.460938 C 837.304688 543.5625 827.179688 537.601562 814.503906 532.707031 Z M 1000.738281 548.171875 C 984.679688 541.683594 969.96875 532.515625 957.300781 520.921875 C 945.675781 510.289062 932.902344 501.21875 919.339844 493.253906 C 910.082031 488.191406 900.933594 483.367188 891.800781 477.953125 C 882.199219 472.179688 873.808594 464.667969 866.855469 455.890625 C 856.234375 441.867188 843.167969 429.738281 828.527344 419.808594 C 822.011719 415.917969 815.308594 412.550781 808.480469 409.535156 C 799.910156 405.3125 791.101562 401.199219 782.46875 397.148438 C 772.5 392.425781 762.089844 388.925781 751.308594 386.476562 C 745.273438 385.121094 739.476562 383.65625 733.566406 381.953125 C 726.015625 379.863281 718.03125 378.996094 710.195312 379.371094 C 692.363281 379.542969 674.292969 379.828125 656.871094 383.300781 C 641.921875 386.46875 627.027344 390.050781 612.132812 393.632812 C 602.375 396.082031 592.734375 398.769531 582.980469 401.21875 C 572.097656 404.054688 560.785156 404.769531 549.695312 403.199219 C 547.117188 402.675781 544.546875 401.566406 542.578125 399.882812 C 539.332031 397.351562 540.175781 393.3125 543.683594 391.207031 C 545.410156 390.242188 547.308594 389.339844 549.148438 388.613281 C 564.347656 381.394531 579.835938 374.476562 594.984375 366.847656 C 610.136719 359.214844 626.09375 355.421875 643.007812 353.9375 C 666.59375 351.46875 690.246094 351.589844 713.796875 350.882812 C 734.105469 350.40625 754.183594 352.804688 774.324219 355.027344 C 791.171875 357.070312 808 360.285156 824.453125 364.550781 C 836.109375 367.308594 847.839844 369.304688 859.621094 371.714844 C 869 373.664062 878.253906 375.964844 887.457031 377.851562 C 905.273438 381.617188 923.535156 383.566406 941.71875 383.519531 C 947.25 383.511719 952.75 385.265625 957.210938 388.824219 C 963.242188 393.527344 968.609375 398.980469 973.082031 405.300781 C 979.160156 413.765625 981.035156 423.496094 980.957031 433.722656 C 980.851562 436.246094 980.746094 438.769531 980.988281 441.417969 C 981.472656 450.066406 984.90625 458.1875 990.792969 464.414062 C 1001.621094 476.734375 1014.484375 487.21875 1028.808594 495.261719 C 1034.984375 498.4375 1041.347656 501.09375 1047.835938 503.394531 C 1055.3125 506.25 1062.855469 508.925781 1069.535156 513.464844 C 1079.699219 520.425781 1081.15625 527.449219 1074.597656 538.128906 C 1068.589844 547.824219 1059.996094 554.234375 1048.789062 555.773438 C 1043.59375 556.492188 1038.261719 555.386719 1033.15625 554.753906 C 1025.292969 553.539062 1017.492188 552.152344 1009.753906 550.585938 C 1006.648438 549.878906 1003.84375 548.882812 1000.738281 548.171875 Z M 1001.671875 545.546875 C 1004.539062 546.371094 1007.34375 547.367188 1010.335938 547.835938 C 1018.839844 549.476562 1027.402344 550.9375 1035.964844 552.402344 C 1040.007812 553.246094 1044.0625 553.503906 1048.128906 553.175781 C 1058.339844 551.671875 1067.222656 545.5625 1072.332031 536.734375 C 1077.855469 527.851562 1076.726562 522.128906 1068.191406 516.140625 C 1062.035156 511.789062 1054.960938 509.472656 1048.070312 506.632812 C 1041.054688 504.140625 1034.339844 501.363281 1027.636719 498 C 1012.789062 489.769531 999.636719 478.988281 988.34375 466.304688 C 982.460938 460.078125 979.023438 451.957031 978.300781 443.421875 C 978.007812 440.359375 978.1875 437.074219 978.128906 433.898438 C 978.207031 423.675781 976.21875 413.707031 969.601562 405.640625 C 965.285156 400.558594 960.496094 395.703125 955.515625 391.375 C 951.578125 388.003906 946.492188 386.199219 941.3125 386.332031 C 922.777344 386.253906 904.515625 384.304688 886.285156 380.589844 C 877.085938 378.703125 867.832031 376.402344 858.628906 374.515625 C 846.847656 372.105469 834.941406 370.046875 823.285156 367.289062 C 806.066406 362.949219 788.652344 359.722656 771.039062 357.605469 C 752.949219 355.71875 735.050781 353.304688 716.742188 353.703125 C 690.136719 354.113281 663.308594 354.046875 636.773438 357.042969 C 624.210938 358.496094 611.804688 361.1875 600.15625 367.300781 C 582.859375 376.535156 564.992188 384.582031 547.015625 392.390625 C 546.304688 392.730469 545.59375 393.066406 545.054688 393.46875 C 543.03125 394.71875 542.820312 396.421875 544.675781 397.867188 C 546.417969 399.078125 548.285156 399.9375 550.277344 400.449219 C 558.664062 401.847656 567.261719 401.550781 575.652344 399.601562 C 586.9375 397.300781 598.117188 394.175781 609.171875 391.398438 C 624.070312 387.816406 638.851562 384 653.734375 381.003906 C 672.046875 377.257812 690.832031 376.632812 709.425781 376.535156 C 716.960938 376.449219 724.492188 376.363281 731.867188 378.390625 C 737.429688 379.972656 742.8125 381.488281 748.496094 382.71875 C 760.980469 385.378906 773.140625 389.5 784.691406 394.78125 C 793.5 398.894531 802.308594 403.007812 811.050781 407.296875 C 817.003906 410 822.890625 412.878906 828.417969 416.222656 C 843.535156 425.925781 856.777344 438.117188 867.75 452.265625 C 876.195312 462.953125 886.792969 472.035156 898.785156 478.855469 C 906.816406 483.484375 915.210938 487.644531 923.242188 492.273438 C 936.804688 500.242188 949.277344 509.597656 960.964844 520.054688 C 972.878906 530.988281 986.839844 539.492188 1001.671875 545.546875 Z M 775.730469 467.292969 C 775.59375 468.230469 775.398438 469.34375 775.199219 470.457031 C 775.164062 472.21875 773.667969 473.65625 771.902344 473.621094 C 771.726562 473.558594 771.726562 473.558594 771.488281 473.671875 C 768.550781 473.613281 765.730469 473.203125 762.863281 472.382812 C 750.765625 468.085938 738.046875 465.542969 725.5625 462.882812 C 719.589844 461.355469 713.503906 459.585938 707.777344 457.359375 C 706.085938 456.558594 704.757812 455.300781 703.789062 453.574219 C 702.585938 451.964844 702.804688 449.679688 704.480469 448.300781 C 705.015625 447.902344 705.492188 447.675781 705.902344 447.625 C 706.554688 447.460938 707.027344 447.234375 707.617188 447.246094 C 725.546875 445.136719 743.726562 445.089844 761.703125 446.738281 C 770.339844 447.441406 778.128906 455.53125 779.550781 464.3125 C 779.765625 465.375 779.570312 466.488281 778.847656 467.414062 C 778.308594 467.816406 776.90625 467.316406 775.730469 467.292969 Z M 712.910156 456.8125 C 717.828125 457.96875 721.925781 459.226562 725.96875 460.070312 C 738.511719 462.554688 751.234375 465.101562 763.269531 469.570312 C 764.5 470.007812 765.789062 470.269531 767.078125 470.527344 C 771.710938 471.386719 771.535156 471.324219 772.738281 466.820312 C 772.984375 466.121094 773.945312 465.082031 774.472656 465.269531 C 776.527344 465.605469 776.835938 464.730469 775.984375 463.242188 C 775.027344 460.933594 773.832031 458.734375 772.574219 456.710938 C 770.1875 452.316406 765.476562 449.460938 760.53125 449.476562 C 754.125 449.175781 747.542969 448.808594 741.132812 448.503906 C 730.019531 448.105469 719.007812 448.53125 708.035156 449.957031 C 707.148438 450.234375 706.023438 450.625 705.25 451.136719 C 705.761719 451.910156 706.152344 453.035156 706.90625 453.695312 C 709.300781 454.742188 711.453125 455.902344 712.910156 456.8125 Z M 991.3125 667.039062 C 985.75 665.457031 978.019531 660.542969 970.585938 655.34375 C 964.605469 651.050781 958.6875 646.585938 952.957031 641.59375 C 950.988281 639.910156 949.382812 637.761719 948.3125 635.210938 C 945.933594 630.230469 947.839844 625.976562 953.105469 624.496094 C 958.019531 622.890625 962.828125 623.808594 967.695312 624.550781 C 976.609375 626.140625 985.328125 628.839844 993.609375 632.765625 C 1004.105469 637.675781 1015.382812 638.726562 1026.910156 639.074219 C 1036.910156 639.273438 1046.199219 636.460938 1055.390625 632.824219 C 1057.527344 631.808594 1059.550781 630.558594 1061.402344 629.242188 C 1067.660156 624.960938 1073.980469 620.503906 1080.304688 616.046875 C 1082.691406 614.328125 1085.804688 614.449219 1087.136719 615.710938 C 1089.445312 618.109375 1089.789062 621.582031 1087.855469 624.246094 C 1084.039062 629.988281 1080.113281 635.492188 1076.121094 641.171875 C 1072.667969 646.449219 1069.039062 651.664062 1065.121094 656.582031 C 1055.300781 668.667969 1039.9375 675.234375 1024.253906 673.808594 C 1013.839844 673.65625 1004 671.347656 991.3125 667.039062 Z M 993.820312 664.972656 C 1002.941406 668.210938 1012.492188 670.222656 1022.179688 671.296875 C 1039.21875 672.8125 1053.507812 667.046875 1064.300781 653.332031 C 1068.15625 648.59375 1071.082031 643.128906 1074.710938 637.910156 C 1078.339844 632.695312 1081.847656 627.828125 1085.414062 622.789062 C 1086.5 621.398438 1086.417969 619.398438 1085.089844 618.140625 C 1084.109375 617.003906 1082.746094 617.503906 1081.4375 618.417969 C 1075.886719 622.363281 1070.167969 626.242188 1064.621094 630.1875 C 1061.933594 632.191406 1059.074219 634.132812 1055.984375 635.597656 C 1046.496094 639.523438 1036.855469 642.210938 1026.617188 642.121094 C 1014.851562 641.886719 1003.226562 640.714844 992.199219 635.617188 C 984.269531 631.816406 975.730469 629.179688 966.988281 627.652344 C 962.53125 626.859375 958.25 626.125 953.8125 627.507812 C 950.023438 628.722656 948.742188 631.226562 950.675781 634.671875 C 952.097656 637.34375 954.230469 639.679688 956.425781 641.839844 C 967.484375 651.285156 980.21875 659.355469 993.820312 664.972656 Z M 949.71875 405.480469 C 952.710938 405.949219 954.832031 408.871094 955.507812 413.644531 C 956.4375 420.480469 957.367188 427.316406 958.53125 434.039062 C 958.839844 436.511719 959.382812 438.875 960.277344 441.359375 C 963.25 449.117188 966.394531 456.933594 969.367188 464.691406 C 974.933594 478.496094 983.246094 490.121094 995.628906 498.066406 C 1003.296875 503.152344 1011.332031 507.78125 1019.0625 512.695312 C 1028.890625 518.941406 1038.539062 525.128906 1048.304688 531.554688 C 1048.941406 531.976562 1048.921875 533.152344 1049.261719 533.863281 C 1049.375 534.101562 1049.25 534.449219 1049.300781 534.863281 C 1050.722656 537.535156 1050.089844 539.875 1047.136719 540.402344 C 1044.058594 541.28125 1040.820312 541.511719 1037.527344 541.328125 C 1033.535156 540.894531 1029.800781 539.175781 1026.792969 536.53125 C 1016.257812 527.269531 1003.914062 520.324219 990.640625 516.003906 C 977.425781 511.511719 966.042969 503.527344 954.960938 495.253906 C 947.015625 489.28125 939.964844 482.441406 932.078125 476.289062 C 921.8125 468.503906 910.757812 461.820312 900.066406 454.671875 C 893.210938 450.070312 886.652344 445.179688 882.082031 438.035156 C 880.9375 436.25 880.03125 434.351562 879.363281 432.339844 C 876.679688 424.882812 880.542969 416.792969 888.003906 414.121094 C 888.242188 414.007812 888.480469 413.894531 888.65625 413.957031 C 891.320312 413.128906 894.4375 413.25 897.273438 412.484375 C 900.226562 411.953125 903.128906 411.015625 905.976562 409.660156 C 919.601562 401.882812 933.5625 400.925781 949.71875 405.480469 Z M 1047.722656 534.304688 C 1047.433594 534.003906 1047.257812 533.941406 1046.96875 533.640625 C 1037.320312 527.457031 1027.730469 521.09375 1017.84375 515.019531 C 1011.851562 511.316406 1005.324219 508.011719 999.394531 504.132812 C 989.871094 497.597656 980.46875 490.710938 974.660156 480.371094 C 971.871094 475.4375 969.144531 470.328125 966.828125 465.171875 C 963.558594 457.703125 960.585938 449.945312 957.726562 442.425781 C 956.832031 439.9375 956.289062 437.578125 956.042969 434.929688 C 954.941406 428.03125 953.898438 420.957031 952.855469 413.886719 C 952.734375 410.886719 950.488281 408.316406 947.496094 407.84375 C 933.921875 403.8125 920.667969 404.429688 908.171875 411.820312 C 904.722656 413.75 900.933594 414.964844 897.105469 415.183594 C 894.515625 415.25 891.976562 415.726562 889.488281 416.617188 C 883.6875 418.5 880.449219 424.839844 882.339844 430.636719 C 882.277344 430.8125 882.453125 430.875 882.390625 431.050781 C 883.5625 434.421875 885.382812 437.632812 887.804688 440.265625 C 892.195312 444.582031 896.886719 448.613281 901.9375 452.183594 C 911.578125 458.957031 921.640625 465.09375 931.28125 471.867188 C 936.621094 475.734375 941.347656 480.761719 946.566406 484.980469 C 953.636719 490.644531 960.707031 496.308594 968.265625 501.164062 C 975.070312 505.351562 982.175781 509.253906 989.53125 512.457031 C 996.292969 515.648438 1003.246094 518.3125 1010.074219 521.328125 C 1017.363281 524.707031 1023.382812 529.996094 1029.765625 534.828125 C 1033.765625 538.019531 1038.738281 539.589844 1043.753906 538.808594 C 1045.355469 538.191406 1047.945312 538.128906 1047.722656 534.304688 Z M 857.363281 394.761719 C 855.195312 394.191406 853.03125 393.621094 850.863281 393.046875 C 848.695312 392.476562 847.160156 392.914062 846.175781 395.128906 C 843.523438 401.480469 845.859375 408.8125 851.847656 412.515625 C 853.714844 413.378906 855.757812 414.300781 857.921875 414.871094 C 858.625 415.121094 859.460938 414.433594 860.347656 414.15625 C 860.007812 413.445312 859.433594 412.84375 858.792969 412.421875 C 856.574219 411.4375 854.296875 410.628906 852.140625 409.46875 C 850.800781 408.792969 849.761719 407.832031 849.082031 406.410156 C 848.609375 403.285156 848.492188 400.285156 848.609375 397.175781 C 848.855469 396.472656 849.394531 396.074219 850.21875 395.972656 C 855.503906 396.664062 860.523438 398.644531 864.699219 401.902344 C 867.421875 404.25 867.695312 408.484375 865.347656 411.199219 C 865.046875 411.488281 864.75 411.777344 864.511719 411.886719 C 864.085938 412.527344 863.777344 413.402344 863.527344 414.101562 C 864.351562 414 865.644531 414.261719 866.242188 413.6875 C 870.363281 410.417969 870.847656 403.496094 867.085938 400.1875 C 864.128906 397.953125 861.042969 396.070312 857.785156 394.125 Z M 857.363281 394.761719 "/>
</g>
</g>
</g>
</g>
</svg>
