<?xml version="1.0" encoding="UTF-8"?>
<svg xmlns="http://www.w3.org/2000/svg" xmlns:xlink="http://www.w3.org/1999/xlink" width="810pt" height="809.999993pt" viewBox="0 0 810 809.999993" version="1.2">
<defs>
<clipPath id="clip1">
  <path d="M 31.9375 31.9375 L 777.117188 31.9375 L 777.117188 777.117188 L 31.9375 777.117188 Z M 31.9375 31.9375 "/>
</clipPath>
<clipPath id="clip2">
  <path d="M 348 560 L 477 560 L 477 713.667969 L 348 713.667969 Z M 348 560 "/>
</clipPath>
<clipPath id="clip3">
  <path d="M 121 182.449219 L 701 182.449219 L 701 649 L 121 649 Z M 121 182.449219 "/>
</clipPath>
</defs>
<g id="surface1">
<g clip-path="url(#clip1)" clip-rule="nonzero">
<path style=" stroke:none;fill-rule:nonzero;fill:rgb(100%,72.549438%,13.729858%);fill-opacity:1;" d="M 777.117188 404.527344 C 777.117188 410.625 776.96875 416.71875 776.667969 422.808594 C 776.371094 428.898438 775.921875 434.980469 775.324219 441.046875 C 774.726562 447.117188 773.980469 453.167969 773.085938 459.199219 C 772.191406 465.230469 771.148438 471.234375 769.957031 477.214844 C 768.769531 483.195312 767.433594 489.144531 765.953125 495.058594 C 764.46875 500.972656 762.84375 506.847656 761.074219 512.683594 C 759.304688 518.519531 757.390625 524.308594 755.335938 530.050781 C 753.28125 535.789062 751.089844 541.476562 748.753906 547.113281 C 746.421875 552.746094 743.953125 558.316406 741.34375 563.832031 C 738.738281 569.34375 735.996094 574.789062 733.121094 580.164062 C 730.246094 585.542969 727.242188 590.847656 724.109375 596.078125 C 720.972656 601.308594 717.710938 606.457031 714.324219 611.527344 C 710.9375 616.597656 707.425781 621.582031 703.792969 626.480469 C 700.160156 631.375 696.410156 636.183594 692.542969 640.894531 C 688.675781 645.609375 684.695312 650.226562 680.597656 654.742188 C 676.503906 659.261719 672.300781 663.675781 667.988281 667.988281 C 663.675781 672.300781 659.261719 676.503906 654.742188 680.597656 C 650.226562 684.695312 645.609375 688.675781 640.894531 692.542969 C 636.183594 696.410156 631.375 700.160156 626.480469 703.792969 C 621.582031 707.425781 616.597656 710.9375 611.527344 714.324219 C 606.457031 717.710938 601.308594 720.972656 596.078125 724.109375 C 590.847656 727.242188 585.542969 730.246094 580.164062 733.121094 C 574.789062 735.996094 569.34375 738.738281 563.832031 741.34375 C 558.316406 743.953125 552.746094 746.421875 547.113281 748.753906 C 541.476562 751.089844 535.789062 753.28125 530.050781 755.335938 C 524.308594 757.390625 518.519531 759.304688 512.683594 761.074219 C 506.851562 762.84375 500.972656 764.46875 495.058594 765.953125 C 489.144531 767.433594 483.195312 768.769531 477.214844 769.957031 C 471.234375 771.148438 465.230469 772.191406 459.199219 773.085938 C 453.167969 773.980469 447.117188 774.726562 441.046875 775.324219 C 434.980469 775.921875 428.898438 776.371094 422.808594 776.667969 C 416.71875 776.96875 410.625 777.117188 404.527344 777.117188 C 398.429688 777.117188 392.335938 776.96875 386.246094 776.667969 C 380.15625 776.371094 374.074219 775.921875 368.007812 775.324219 C 361.9375 774.726562 355.890625 773.980469 349.859375 773.085938 C 343.824219 772.191406 337.820312 771.148438 331.839844 769.957031 C 325.859375 768.769531 319.910156 767.433594 313.996094 765.953125 C 308.082031 764.46875 302.207031 762.84375 296.371094 761.074219 C 290.535156 759.304688 284.746094 757.390625 279.007812 755.335938 C 273.265625 753.28125 267.578125 751.089844 261.945312 748.753906 C 256.308594 746.421875 250.738281 743.953125 245.226562 741.34375 C 239.710938 738.738281 234.269531 735.996094 228.890625 733.121094 C 223.511719 730.246094 218.207031 727.242188 212.976562 724.109375 C 207.75 720.972656 202.597656 717.710938 197.527344 714.324219 C 192.457031 710.9375 187.472656 707.425781 182.578125 703.792969 C 177.679688 700.160156 172.871094 696.410156 168.160156 692.542969 C 163.445312 688.675781 158.828125 684.695312 154.3125 680.597656 C 149.792969 676.503906 145.378906 672.300781 141.066406 667.988281 C 136.753906 663.675781 132.550781 659.261719 128.457031 654.742188 C 124.363281 650.226562 120.378906 645.609375 116.511719 640.894531 C 112.644531 636.183594 108.894531 631.375 105.261719 626.480469 C 101.628906 621.582031 98.117188 616.597656 94.730469 611.527344 C 91.34375 606.457031 88.082031 601.308594 84.945312 596.078125 C 81.8125 590.847656 78.808594 585.542969 75.933594 580.164062 C 73.058594 574.789062 70.316406 569.34375 67.710938 563.832031 C 65.101562 558.316406 62.632812 552.746094 60.300781 547.113281 C 57.964844 541.476562 55.773438 535.789062 53.71875 530.050781 C 51.664062 524.308594 49.75 518.519531 47.980469 512.683594 C 46.210938 506.851562 44.585938 500.972656 43.105469 495.058594 C 41.621094 489.144531 40.285156 483.195312 39.097656 477.214844 C 37.90625 471.234375 36.867188 465.230469 35.96875 459.199219 C 35.074219 453.167969 34.328125 447.117188 33.730469 441.046875 C 33.132812 434.980469 32.6875 428.898438 32.386719 422.808594 C 32.085938 416.71875 31.9375 410.625 31.9375 404.527344 C 31.9375 398.429688 32.085938 392.335938 32.386719 386.246094 C 32.6875 380.15625 33.132812 374.074219 33.730469 368.007812 C 34.328125 361.9375 35.074219 355.890625 35.96875 349.859375 C 36.867188 343.824219 37.90625 337.820312 39.097656 331.839844 C 40.285156 325.859375 41.621094 319.910156 43.105469 313.996094 C 44.585938 308.082031 46.210938 302.207031 47.980469 296.371094 C 49.75 290.535156 51.664062 284.746094 53.71875 279.007812 C 55.773438 273.265625 57.964844 267.578125 60.300781 261.945312 C 62.632812 256.308594 65.101562 250.738281 67.710938 245.226562 C 70.316406 239.710938 73.058594 234.269531 75.933594 228.890625 C 78.808594 223.511719 81.8125 218.207031 84.945312 212.976562 C 88.082031 207.75 91.34375 202.597656 94.730469 197.527344 C 98.117188 192.457031 101.628906 187.472656 105.261719 182.578125 C 108.894531 177.679688 112.644531 172.871094 116.511719 168.160156 C 120.378906 163.445312 124.363281 158.828125 128.457031 154.3125 C 132.550781 149.792969 136.753906 145.378906 141.066406 141.066406 C 145.378906 136.753906 149.792969 132.550781 154.3125 128.457031 C 158.828125 124.363281 163.445312 120.378906 168.160156 116.511719 C 172.871094 112.644531 177.679688 108.894531 182.578125 105.261719 C 187.472656 101.628906 192.457031 98.117188 197.527344 94.730469 C 202.597656 91.34375 207.75 88.082031 212.976562 84.945312 C 218.207031 81.8125 223.511719 78.808594 228.890625 75.933594 C 234.269531 73.058594 239.710938 70.316406 245.226562 67.710938 C 250.738281 65.101562 256.308594 62.632812 261.945312 60.300781 C 267.578125 57.964844 273.265625 55.773438 279.007812 53.71875 C 284.746094 51.664062 290.535156 49.75 296.371094 47.980469 C 302.207031 46.210938 308.082031 44.585938 313.996094 43.105469 C 319.910156 41.621094 325.859375 40.285156 331.839844 39.097656 C 337.820312 37.90625 343.824219 36.867188 349.859375 35.972656 C 355.890625 35.074219 361.9375 34.328125 368.007812 33.730469 C 374.074219 33.132812 380.15625 32.6875 386.246094 32.386719 C 392.335938 32.085938 398.429688 31.9375 404.527344 31.9375 C 410.625 31.9375 416.71875 32.085938 422.808594 32.386719 C 428.898438 32.6875 434.980469 33.132812 441.046875 33.730469 C 447.117188 34.328125 453.167969 35.074219 459.199219 35.972656 C 465.230469 36.867188 471.234375 37.90625 477.214844 39.097656 C 483.195312 40.285156 489.144531 41.621094 495.058594 43.105469 C 500.972656 44.585938 506.847656 46.210938 512.683594 47.980469 C 518.519531 49.75 524.308594 51.664062 530.050781 53.71875 C 535.789062 55.773438 541.476562 57.964844 547.113281 60.300781 C 552.746094 62.632812 558.316406 65.101562 563.832031 67.710938 C 569.34375 70.316406 574.789062 73.058594 580.164062 75.933594 C 585.542969 78.808594 590.847656 81.8125 596.078125 84.945312 C 601.308594 88.082031 606.457031 91.34375 611.527344 94.730469 C 616.597656 98.117188 621.582031 101.628906 626.480469 105.261719 C 631.375 108.894531 636.183594 112.644531 640.894531 116.511719 C 645.609375 120.378906 650.226562 124.363281 654.742188 128.457031 C 659.261719 132.550781 663.675781 136.753906 667.988281 141.066406 C 672.300781 145.378906 676.503906 149.792969 680.597656 154.3125 C 684.695312 158.828125 688.675781 163.445312 692.542969 168.160156 C 696.410156 172.871094 700.160156 177.679688 703.792969 182.578125 C 707.425781 187.472656 710.9375 192.457031 714.324219 197.527344 C 717.710938 202.597656 720.972656 207.75 724.109375 212.976562 C 727.242188 218.207031 730.246094 223.511719 733.121094 228.890625 C 735.996094 234.269531 738.738281 239.710938 741.34375 245.226562 C 743.953125 250.738281 746.421875 256.308594 748.753906 261.945312 C 751.089844 267.578125 753.28125 273.265625 755.335938 279.007812 C 757.390625 284.746094 759.304688 290.535156 761.074219 296.371094 C 762.84375 302.207031 764.46875 308.082031 765.953125 313.996094 C 767.433594 319.910156 768.769531 325.859375 769.957031 331.839844 C 771.148438 337.820312 772.191406 343.824219 773.085938 349.859375 C 773.980469 355.890625 774.726562 361.9375 775.324219 368.007812 C 775.921875 374.074219 776.371094 380.15625 776.667969 386.246094 C 776.96875 392.335938 777.117188 398.429688 777.117188 404.527344 Z M 777.117188 404.527344 "/>
</g>
<path style=" stroke:none;fill-rule:nonzero;fill:rgb(100%,72.549438%,13.729858%);fill-opacity:1;" d="M 413.285156 286.644531 C 345.988281 286.644531 291.234375 340.234375 291.234375 406.109375 C 291.234375 471.984375 345.988281 525.578125 413.285156 525.578125 C 480.585938 525.578125 535.339844 471.984375 535.339844 406.109375 C 535.339844 340.234375 480.585938 286.644531 413.285156 286.644531 Z M 413.285156 495.265625 C 362.699219 495.265625 321.542969 455.269531 321.542969 406.109375 C 321.542969 356.953125 362.699219 316.957031 413.285156 316.957031 C 463.875 316.957031 505.03125 356.953125 505.03125 406.109375 C 505.03125 455.269531 463.875 495.265625 413.285156 495.265625 Z M 413.285156 495.265625 "/>
<path style=" stroke:none;fill-rule:nonzero;fill:rgb(100%,72.549438%,13.729858%);fill-opacity:1;" d="M 413.121094 275.382812 C 420.414062 275.382812 426.34375 269.449219 426.34375 262.15625 L 426.34375 209.246094 C 426.34375 201.953125 420.410156 196.019531 413.121094 196.019531 C 405.828125 196.019531 399.894531 201.949219 399.894531 209.246094 L 399.894531 262.15625 C 399.894531 269.449219 405.828125 275.382812 413.121094 275.382812 Z M 413.121094 275.382812 "/>
<path style=" stroke:none;fill-rule:nonzero;fill:rgb(100%,72.549438%,13.729858%);fill-opacity:1;" d="M 347.039062 274.808594 C 348.84375 280.21875 353.886719 283.851562 359.582031 283.851562 C 360.980469 283.851562 362.378906 283.628906 363.765625 283.171875 C 370.679688 280.867188 374.429688 273.367188 372.132812 266.449219 L 355.414062 216.257812 C 353.609375 210.84375 348.574219 207.210938 342.882812 207.210938 C 341.457031 207.210938 340.046875 207.441406 338.695312 207.894531 C 335.34375 209.007812 332.625 211.367188 331.042969 214.523438 C 329.464844 217.683594 329.210938 221.269531 330.328125 224.617188 Z M 347.039062 274.808594 "/>
<path style=" stroke:none;fill-rule:nonzero;fill:rgb(100%,72.549438%,13.729858%);fill-opacity:1;" d="M 304.851562 302.269531 C 307.375 305.503906 311.179688 307.359375 315.285156 307.359375 C 318.265625 307.359375 321.078125 306.390625 323.410156 304.566406 C 326.199219 302.394531 327.972656 299.265625 328.40625 295.761719 C 328.839844 292.25 327.882812 288.785156 325.710938 286.007812 L 293.203125 244.308594 C 290.683594 241.066406 286.878906 239.210938 282.769531 239.210938 C 279.839844 239.210938 276.957031 240.203125 274.644531 242.003906 C 268.894531 246.488281 267.863281 254.816406 272.34375 260.566406 Z M 304.851562 302.269531 "/>
<path style=" stroke:none;fill-rule:nonzero;fill:rgb(100%,72.549438%,13.729858%);fill-opacity:1;" d="M 231.1875 313.992188 L 276.425781 341.320312 C 278.488281 342.566406 280.851562 343.222656 283.253906 343.222656 C 287.917969 343.222656 292.152344 340.839844 294.585938 336.835938 C 298.351562 330.59375 296.339844 322.453125 290.101562 318.679688 L 244.867188 291.351562 C 242.804688 290.105469 240.441406 289.445312 238.035156 289.445312 C 233.429688 289.445312 229.089844 291.890625 226.714844 295.824219 C 224.882812 298.847656 224.34375 302.40625 225.1875 305.835938 C 226.035156 309.269531 228.164062 312.164062 231.1875 313.992188 Z M 231.1875 313.992188 "/>
<path style=" stroke:none;fill-rule:nonzero;fill:rgb(100%,72.549438%,13.729858%);fill-opacity:1;" d="M 211.980469 380.808594 L 264.117188 389.414062 C 264.835938 389.53125 265.5625 389.589844 266.269531 389.589844 C 272.761719 389.589844 278.242188 384.9375 279.304688 378.523438 C 279.882812 375.039062 279.066406 371.539062 277.011719 368.664062 C 274.953125 365.792969 271.898438 363.894531 268.417969 363.320312 L 216.328125 354.71875 C 215.582031 354.589844 214.824219 354.527344 214.078125 354.527344 C 207.605469 354.527344 202.144531 359.1875 201.085938 365.609375 C 199.902344 372.800781 204.789062 379.621094 211.980469 380.808594 Z M 211.980469 380.808594 "/>
<path style=" stroke:none;fill-rule:nonzero;fill:rgb(100%,72.549438%,13.729858%);fill-opacity:1;" d="M 278.289062 436.757812 C 280.242188 433.820312 280.9375 430.292969 280.242188 426.828125 C 279.003906 420.679688 273.542969 416.214844 267.257812 416.214844 C 266.398438 416.214844 265.53125 416.300781 264.667969 416.46875 L 212.890625 426.878906 C 205.746094 428.316406 201.101562 435.304688 202.539062 442.457031 C 203.78125 448.605469 209.226562 453.070312 215.492188 453.070312 C 216.347656 453.070312 217.21875 452.984375 218.109375 452.8125 L 269.882812 442.402344 C 273.347656 441.703125 276.332031 439.703125 278.289062 436.757812 Z M 278.289062 436.757812 "/>
<path style=" stroke:none;fill-rule:nonzero;fill:rgb(100%,72.549438%,13.729858%);fill-opacity:1;" d="M 297 469.914062 C 294.621094 465.972656 290.28125 463.527344 285.671875 463.527344 C 283.269531 463.527344 280.910156 464.183594 278.847656 465.429688 L 233.664062 492.742188 C 227.425781 496.515625 225.417969 504.664062 229.179688 510.890625 C 231.554688 514.832031 235.898438 517.285156 240.515625 517.285156 C 242.910156 517.285156 245.273438 516.625 247.34375 515.378906 L 292.519531 488.074219 C 298.761719 484.308594 300.773438 476.160156 297 469.914062 Z M 297 469.914062 "/>
<path style=" stroke:none;fill-rule:nonzero;fill:rgb(100%,72.549438%,13.729858%);fill-opacity:1;" d="M 326.765625 504.425781 C 324.398438 502.46875 321.40625 501.394531 318.339844 501.394531 C 314.386719 501.394531 310.671875 503.136719 308.144531 506.183594 L 274.5 546.835938 C 269.859375 552.457031 270.648438 560.8125 276.253906 565.441406 C 278.613281 567.40625 281.609375 568.492188 284.6875 568.492188 C 288.644531 568.492188 292.359375 566.746094 294.878906 563.703125 L 328.523438 523.046875 C 333.167969 517.429688 332.378906 509.078125 326.765625 504.425781 Z M 326.765625 504.425781 "/>
<path style=" stroke:none;fill-rule:nonzero;fill:rgb(100%,72.549438%,13.729858%);fill-opacity:1;" d="M 366.441406 527.261719 C 364.980469 526.726562 363.449219 526.457031 361.902344 526.457031 C 356.375 526.457031 351.382812 529.941406 349.484375 535.128906 L 331.328125 584.648438 C 328.820312 591.5 332.351562 599.109375 339.1875 601.613281 C 340.660156 602.15625 342.195312 602.429688 343.746094 602.429688 C 349.273438 602.429688 354.261719 598.945312 356.164062 593.753906 L 374.316406 544.226562 C 375.53125 540.914062 375.378906 537.324219 373.894531 534.121094 C 372.410156 530.910156 369.765625 528.476562 366.441406 527.261719 Z M 366.441406 527.261719 "/>
<path style=" stroke:none;fill-rule:nonzero;fill:rgb(100%,72.549438%,13.729858%);fill-opacity:1;" d="M 413.207031 535.507812 C 409.675781 535.507812 406.355469 536.882812 403.859375 539.382812 C 401.363281 541.882812 399.988281 545.207031 399.992188 548.738281 L 400.019531 601.464844 C 400.027344 608.75 405.960938 614.679688 413.246094 614.679688 L 413.25 614.679688 C 413.253906 614.679688 413.253906 614.679688 413.257812 614.679688 C 420.542969 614.667969 426.46875 608.734375 426.46875 601.445312 L 426.4375 548.71875 C 426.425781 541.433594 420.492188 535.507812 413.207031 535.507812 Z M 413.207031 535.507812 "/>
<path style=" stroke:none;fill-rule:nonzero;fill:rgb(100%,72.549438%,13.729858%);fill-opacity:1;" d="M 476.917969 535.082031 C 475.015625 529.898438 470.023438 526.414062 464.496094 526.414062 C 462.945312 526.414062 461.414062 526.6875 459.933594 527.226562 C 456.621094 528.449219 453.980469 530.890625 452.5 534.09375 C 451.019531 537.300781 450.875 540.894531 452.097656 544.203125 L 470.296875 593.664062 C 472.203125 598.847656 477.191406 602.328125 482.707031 602.328125 C 484.246094 602.328125 485.777344 602.058594 487.273438 601.511719 C 490.589844 600.289062 493.230469 597.855469 494.710938 594.648438 C 496.195312 591.441406 496.339844 587.847656 495.117188 584.535156 Z M 476.917969 535.082031 "/>
<path style=" stroke:none;fill-rule:nonzero;fill:rgb(100%,72.549438%,13.729858%);fill-opacity:1;" d="M 518.234375 506.082031 C 515.714844 503.054688 512.007812 501.316406 508.0625 501.316406 C 504.992188 501.316406 501.996094 502.398438 499.617188 504.363281 C 494.015625 509.007812 493.238281 517.359375 497.886719 522.984375 L 531.519531 563.527344 C 534.042969 566.570312 537.753906 568.3125 541.703125 568.3125 C 544.78125 568.3125 547.78125 567.226562 550.140625 565.265625 C 552.859375 563.011719 554.539062 559.832031 554.867188 556.316406 C 555.195312 552.800781 554.132812 549.367188 551.878906 546.644531 Z M 518.234375 506.082031 "/>
<path style=" stroke:none;fill-rule:nonzero;fill:rgb(100%,72.549438%,13.729858%);fill-opacity:1;" d="M 592.621094 492.496094 L 547.515625 465.3125 C 545.453125 464.070312 543.101562 463.417969 540.703125 463.417969 C 536.09375 463.417969 531.75 465.871094 529.375 469.808594 C 527.546875 472.828125 527.007812 476.382812 527.855469 479.808594 C 528.703125 483.246094 530.839844 486.140625 533.871094 487.96875 L 578.980469 515.15625 C 581.039062 516.394531 583.394531 517.050781 585.792969 517.050781 C 590.394531 517.050781 594.734375 514.601562 597.117188 510.65625 C 598.945312 507.632812 599.480469 504.074219 598.632812 500.644531 C 597.78125 497.214844 595.648438 494.324219 592.621094 492.496094 Z M 592.621094 492.496094 "/>
<path style=" stroke:none;fill-rule:nonzero;fill:rgb(100%,72.549438%,13.729858%);fill-opacity:1;" d="M 613.289062 426.628906 L 561.667969 416.308594 C 560.8125 416.140625 559.941406 416.054688 559.078125 416.054688 C 552.792969 416.054688 547.339844 420.527344 546.113281 426.6875 C 544.683594 433.835938 549.339844 440.816406 556.488281 442.246094 L 608.175781 452.574219 C 609.035156 452.738281 609.886719 452.816406 610.707031 452.816406 C 616.988281 452.816406 622.4375 448.347656 623.664062 442.191406 C 624.363281 438.726562 623.664062 435.195312 621.703125 432.253906 C 619.738281 429.3125 616.75 427.316406 613.289062 426.628906 Z M 613.289062 426.628906 "/>
<path style=" stroke:none;fill-rule:nonzero;fill:rgb(100%,72.549438%,13.729858%);fill-opacity:1;" d="M 549.308594 368.460938 C 547.25 371.332031 546.433594 374.835938 547.011719 378.324219 C 548.074219 384.738281 553.558594 389.390625 560.046875 389.390625 C 560.769531 389.390625 561.5 389.332031 562.21875 389.210938 L 614.132812 380.609375 C 621.316406 379.410156 626.199219 372.585938 625.007812 365.394531 C 623.949219 358.988281 618.464844 354.339844 611.976562 354.339844 C 611.246094 354.339844 610.515625 354.398438 609.800781 354.515625 L 557.902344 363.121094 C 554.417969 363.695312 551.367188 365.589844 549.308594 368.460938 Z M 549.308594 368.460938 "/>
<path style=" stroke:none;fill-rule:nonzero;fill:rgb(100%,72.549438%,13.729858%);fill-opacity:1;" d="M 531.710938 336.492188 C 534.089844 340.4375 538.433594 342.890625 543.046875 342.890625 C 545.449219 342.890625 547.808594 342.234375 549.863281 340.992188 L 594.917969 313.851562 C 601.160156 310.082031 603.175781 301.941406 599.417969 295.707031 C 597.042969 291.753906 592.699219 289.300781 588.085938 289.300781 C 585.683594 289.300781 583.320312 289.957031 581.265625 291.199219 L 536.210938 318.339844 C 529.972656 322.105469 527.953125 330.246094 531.710938 336.492188 Z M 531.710938 336.492188 "/>
<path style=" stroke:none;fill-rule:nonzero;fill:rgb(100%,72.549438%,13.729858%);fill-opacity:1;" d="M 502.875 304.050781 C 505.222656 305.890625 508.042969 306.863281 511.027344 306.863281 C 515.109375 306.863281 518.90625 305.019531 521.4375 301.792969 L 553.855469 260.402344 C 558.34375 254.664062 557.335938 246.335938 551.601562 241.835938 C 549.285156 240.023438 546.390625 239.023438 543.453125 239.023438 C 539.359375 239.023438 535.5625 240.867188 533.03125 244.09375 L 500.617188 285.484375 C 496.125 291.226562 497.136719 299.554688 502.875 304.050781 Z M 502.875 304.050781 "/>
<path style=" stroke:none;fill-rule:nonzero;fill:rgb(100%,72.549438%,13.729858%);fill-opacity:1;" d="M 462.574219 282.542969 C 463.925781 282.996094 465.339844 283.222656 466.765625 283.222656 C 472.457031 283.222656 477.496094 279.59375 479.300781 274.199219 L 496 224.367188 C 498.316406 217.453125 494.574219 209.945312 487.652344 207.621094 C 486.292969 207.167969 484.886719 206.941406 483.460938 206.941406 C 477.773438 206.941406 472.734375 210.566406 470.917969 215.964844 L 454.222656 265.800781 C 451.914062 272.71875 455.65625 280.226562 462.574219 282.542969 Z M 462.574219 282.542969 "/>
<g clip-path="url(#clip2)" clip-rule="nonzero">
<path style=" stroke:none;fill-rule:nonzero;fill:rgb(99.609375%,51.368713%,19.60907%);fill-opacity:1;" d="M 409.914062 560.746094 C 386.449219 602.957031 363.714844 645.164062 348.078125 673.988281 C 380.726562 699.015625 405.476562 713.566406 411.640625 713.566406 C 417.894531 713.566406 443.113281 698.609375 476.269531 672.964844 C 459.230469 643.6875 434.847656 601.828125 409.914062 560.746094 "/>
</g>
<g clip-path="url(#clip3)" clip-rule="nonzero">
<path style=" stroke:none;fill-rule:nonzero;fill:rgb(99.609375%,51.368713%,19.60907%);fill-opacity:1;" d="M 561.820312 182.382812 C 482.707031 182.382812 427.695312 220.320312 411.023438 282.578125 C 386.914062 222.378906 339.339844 182.382812 260.21875 182.382812 C 176.589844 182.382812 104.941406 267.992188 124.226562 371.113281 C 144.457031 479.253906 240.597656 583.886719 316.5 648.4375 C 337.195312 619.910156 367.171875 578.558594 395.703125 537.539062 C 367.109375 491.253906 339.523438 449.367188 323.277344 432.199219 C 298.210938 442.003906 264.933594 428.5625 244.550781 398.738281 C 221.613281 365.15625 204.914062 296.039062 230.445312 278.296875 C 255.976562 260.546875 314.058594 300.886719 337.003906 334.464844 C 357.023438 363.769531 357.972656 399.183594 340.925781 419.523438 C 352.015625 440.308594 378.609375 477.976562 408.769531 518.628906 C 439.167969 474.269531 465.878906 432.734375 474.914062 411.140625 C 457.707031 392.632812 462.917969 360.53125 481.882812 329.964844 C 494.335938 309.90625 529.566406 263.96875 534.820312 257.132812 C 542.222656 247.503906 549.394531 253.667969 543.796875 262.804688 C 539.5625 269.710938 487.863281 352.929688 487.863281 352.929688 C 486.109375 355.753906 486.960938 359.480469 489.761719 361.242188 C 492.558594 363.023438 496.253906 362.164062 498.003906 359.335938 C 498.003906 359.335938 549.375 278.371094 554.894531 270.078125 C 561.976562 259.425781 569.042969 265.660156 563.214844 274.71875 C 558.828125 281.535156 508.054688 365.679688 508.054688 365.679688 C 506.300781 368.507812 507.148438 372.226562 509.953125 373.996094 C 512.75 375.769531 516.4375 374.902344 518.195312 372.082031 C 518.195312 372.082031 569.628906 292.609375 575.976562 282.367188 C 582.332031 272.140625 588.253906 278.6875 582.972656 287.191406 C 577.683594 295.703125 528.246094 378.425781 528.246094 378.425781 C 526.488281 381.253906 527.332031 384.980469 530.136719 386.746094 C 532.941406 388.515625 536.628906 387.65625 538.386719 384.835938 C 538.386719 384.835938 588.097656 307.148438 595.003906 296.027344 C 601.902344 284.90625 607.039062 291.714844 603.003906 300.1875 C 598.96875 308.664062 574.21875 360.351562 561.773438 380.410156 C 543.164062 410.398438 517.222656 428.878906 493.507812 422.417969 C 477.601562 442.675781 450.574219 488.371094 422.890625 537.539062 C 453.078125 577.734375 484.882812 618.730469 507.265625 647.675781 C 582.664062 583.070312 677.664062 478.828125 697.8125 371.113281 C 717.105469 267.992188 645.457031 182.382812 561.820312 182.382812 "/>
</g>
</g>
</svg>
